<ttFont>
          <CharString index="0">
            344 rmoveto
            -70 callsubr
            -64 vmoveto
            -252 vlineto
            -73 callsubr
            374 vlineto
            152 -73 72 -144 -34 callgsubr
            -74 16 -77 25 -49 vhcurveto
            -31 16 23 -14 23 hhcurveto
            -73 callgsubr
            return
          </CharString>
          <CharString index="1">
            -8 8 17 -5 17 hhcurveto
            19 16 8 10 4 -1 3 -2 3 hvcurveto
            -5 9 -3 9 10 vvcurveto
            25 26 22 50 28 6 -10 -11 -9 -3 -12 -11 -36 vhcurveto
            return
          </CharString>
          <CharString index="2">
            rmoveto
            -17 11 11 -7 16 hhcurveto
            20 18 13 16 4 -1 4 -6 12 hvcurveto
            -45 81 rlineto
            17 -10 -10 6 -19 hhcurveto
            -24 -20 -18 -18 -6 2 -6 4 -5 hvcurveto
            endchar
          </CharString>
          <CharString index="3">
            -105 callgsubr
            -27 -64 -7 -10 -48 hvcurveto
            return
          </CharString>
          <CharString index="4">
            513 19 callsubr
            -59 callgsubr
            -29 callsubr
            134 -120 93 -178 hvcurveto
            -40 -69 rmoveto
            130 92 -78 -121 -28 callgsubr
            -60 callgsubr
            return
          </CharString>
          <CharString index="5">
            306 55 rmoveto
            -96 -46 45 140 hvcurveto
            99 33 206 21 vvcurveto
            24 -16 15 -32 -30 -16 -11 -27 -5 vhcurveto
            -26 -140 -12 -89 -128 vvcurveto
            -142 61 -82 155 181 137 166 227 75 -13 80 -24 45 vhcurveto
            30 -16 -23 16 -33 hhcurveto
            -31 -25 -20 -26 -16 5 -14 7 -13 hvcurveto
            36 -67 18 -70 -68 vvcurveto
            -156 -71 -120 -118 vhcurveto
            return
          </CharString>
          <CharString index="6">
            174 1 rmoveto
            35 -94 callsubr
            -35 -34 -94 callgsubr
            34 vhcurveto
            endchar
          </CharString>
          <CharString index="7">
            -53 callsubr
            -73 -18 callsubr
            -29 callgsubr
            73 -51 50 -122 hvcurveto
            -42 -80 callgsubr
            return
          </CharString>
          <CharString index="8">
            34 16 16 21 hvcurveto
            32 vlineto
            -77 callgsubr
            -21 16 -16 35 vhcurveto
            return
          </CharString>
          <CharString index="9">
            rmoveto
            hintmask 00100000
            -66 callsubr
            hintmask 00010000
            -65 callgsubr
            hintmask 00100000
            -15 callgsubr
            hintmask 00010000
            -65 callsubr
            hintmask 00100000
            -64 callgsubr
            hintmask 00010000
            -30 callgsubr
          </CharString>
          <CharString index="10">
            -87 callgsubr
            -56 120 98 80 44 89 54 vhcurveto
            return
          </CharString>
          <CharString index="11">
            -99 callsubr
            endchar
          </CharString>
          <CharString index="12">
            -82 callgsubr
            -551 vlineto
            -12 callsubr
            return
          </CharString>
          <CharString index="13">
            -21 callsubr
            hvcurveto
            33 vlineto
            20 -16 17 return
          </CharString>
          <CharString index="14">
            23 callsubr
            hintmask 10100110
            -89 callsubr
            hintmask 01100110
            -93 callgsubr
            hintmask 10100110
            -70 callgsubr
            vhcurveto
            return
          </CharString>
          <CharString index="15">
            386 407 rmoveto
            -85 callgsubr
            hvcurveto
            return
          </CharString>
          <CharString index="16">
            -130 -97 -95 -104 -64 -37 34 69 -68 callgsubr
            return
          </CharString>
          <CharString index="17">
            464 -38 rmoveto
            -120 -90 -76 callgsubr
            16 -6 13 21 vvcurveto
            331 -51 callsubr
            return
          </CharString>
          <CharString index="18">
            -92 callsubr
            -67 vlineto
            return
          </CharString>
          <CharString index="19">
            vvcurveto
            55 -51 45 -113 vhcurveto
            -33 -57 -81 callsubr
            return
          </CharString>
          <CharString index="20">
            -74 callgsubr
            -78 -61 -114 -80 vvcurveto
            return
          </CharString>
          <CharString index="21">
            -16 callgsubr
            64 23 callgsubr
            104 hintmask 11100100
            -106 callgsubr
            hintmask 00011000
            return
          </CharString>
          <CharString index="22">
            464 30 rmoveto
            -23 14 -17 34 33 -50 callgsubr
            328 -69 callsubr
            return
          </CharString>
          <CharString index="23">
            -102 -29 -16 -31 -81 vvcurveto
            -433 -33 callsubr
            431 -45 callgsubr
            return
          </CharString>
          <CharString index="24">
            165 358 rmoveto
            -80 callsubr
            return
          </CharString>
          <CharString index="25">
            vlineto
            -52 callgsubr
            vhcurveto
            -35 -59 rmoveto
            62 40 -39 -58 return
          </CharString>
          <CharString index="26">
            rmoveto
            63 33 -29 -32 -30 -14 -20 -67 -11 hvcurveto
            -218 -35 rlineto
            81 16 94 76 93 hhcurveto
            return
          </CharString>
          <CharString index="27">
            -15 callsubr
            -34 -33 -14 -32 callgsubr
            -330 -62 callsubr
            return
          </CharString>
          <CharString index="28">
            3 callsubr
            82 -24 callgsubr
            40 109 300 101 hintmask 11001100
            -103 callgsubr
            hintmask 00110000
            return
          </CharString>
          <CharString index="29">
            174 257 rmoveto
            -4 27 31 -2 25 hhcurveto
            20 hlineto
            100 106 -92 -130 11 hvcurveto
            -25 2 15 -16 35 hhcurveto
            35 18 16 26 106 -101 122 -115 19 hvcurveto
            return
          </CharString>
          <CharString index="30">
            -100 callgsubr
            hintmask 0000101011000000
            -101 callsubr
          </CharString>
          <CharString index="31">
            4 callgsubr
            84 -24 callgsubr
            60 104 331 99 hintmask 11001100
            -102 callsubr
            hintmask 00110000
            return
          </CharString>
          <CharString index="32">
            rmoveto
            -59 callsubr
            -229 hlineto
            -66 callgsubr
            return
          </CharString>
          <CharString index="33">
            rmoveto
            -96 -101 -11 -12 3 -19 14 -13 rlinecurve
            14 -13 18 -2 13 14 108 120 rcurveline
            10 11 5 8 8 vvcurveto
            8 -5 7 -10 11 vhcurveto
            -109 120 -13 14 -18 -2 -14 -13 rlinecurve
            -14 -13 -4 -18 12 -13 rrcurveto
            return
          </CharString>
          <CharString index="34">
            -12 callsubr
            34 34 -42 callgsubr
            return
          </CharString>
          <CharString index="35">
            hstemhm
            70 105 405 104 hintmask 11000110
            -75 callgsubr
            hintmask 10100110
            -55 callsubr
            return
          </CharString>
          <CharString index="36">
            rmoveto
            12 13 -4 18 -14 13 -14 13 -18 2 -13 -14 -109 -120 rcurveline
            -10 -11 -5 -7 -8 vvcurveto
            -8 5 -8 10 -11 vhcurveto
            108 -120 13 -14 18 2 14 13 rlinecurve
            14 13 3 19 -11 12 -96 101 rcurveline
            return
          </CharString>
          <CharString index="37">
            146 24 78 70 85 hhcurveto
            91 54 -53 -129 hvcurveto
            -34 vlineto
            return
          </CharString>
          <CharString index="38">
            0 callgsubr
            -35 -36 -14 -32 callgsubr
            -88 vlineto
            return
          </CharString>
          <CharString index="39">
            -98 callgsubr
            hintmask 10100000
            117 23 -98 callgsubr
            endchar
          </CharString>
          <CharString index="40">
            21 callsubr
            hintmask 11100110
            -104 callgsubr
            return
          </CharString>
          <CharString index="41">
            -51 -10 -38 -29 hhcurveto
            -16 -10 6 10 -7 hvcurveto
            return
          </CharString>
          <CharString index="42">
            40 22 38 28 hhcurveto
            16 10 -6 -10 7 hvcurveto
            return
          </CharString>
          <CharString index="43">
            rmoveto
            177 hlineto
            1 hlineto
            65 23 23 36 24 -14 16 -22 -24 -5 -9 -10 -5 hvcurveto
            -7 -3 -3 -7 -26 hhcurveto
            -63 hlineto
            85 67 62 94 61 vvcurveto
            57 -41 37 -62 -79 -76 -50 -41 -24 17 -12 21 23 12 10 16 6 vhcurveto
            22 9 20 14 27 hhcurveto
            25 13 -14 -28 -47 -39 -73 -131 -92 hvcurveto
            -18 -12 -3 -5 -13 vvcurveto
            -18 5 -15 23 vhcurveto
            endchar
          </CharString>
          <CharString index="44">
            rmoveto
            -18 14 -13 28 29 15 13 18 vhcurveto
            27 vlineto
            11 -8 10 -11 6 vhcurveto
            23 54 6 11 -7 12 -16 7 rlinecurve
            -17 6 -10 -4 -5 -11 -21 -47 rcurveline
            -16 -35 -4 -11 -13 vvcurveto
            return
          </CharString>
          <CharString index="45">
            vlineto
            -79 callgsubr
            return
          </CharString>
          <CharString index="46">
            -95 18 -56 -78 vvcurveto
            -46 -14 -16 -25 vhcurveto
            -55 43 89 -70 hhcurveto
            -27 -19 -22 -38 -58 55 -39 58 107 48 82 98 hvcurveto
            return
          </CharString>
          <CharString index="47">
            -125 45 99 -71 hhcurveto
            -28 -22 -24 -36 -58 56 -49 109 return
          </CharString>
          <CharString index="48">
            18 11 14 20 19 -11 14 -18 hvcurveto
            return
          </CharString>
          <CharString index="49">
            rmoveto
            -73 -70 -60 -56 -31 23 -24 55 75 69 63 54 33 -29 21 -50 hvcurveto
            22 -69 rmoveto
            -33 -31 -32 -36 -26 -15 10 23 35 31 31 37 24 16 -13 -21 vhcurveto
            endchar
          </CharString>
          <CharString index="50">
            -101 callgsubr
            hintmask 00101101
            -106 callsubr
            hintmask 00011101
            -49 callgsubr
          </CharString>
          <CharString index="51">
            362 133 rmoveto
            141 83 260 68 vhcurveto
            -7 callsubr
            -144 -71 7 callgsubr
            -86 142 -137 -12 callgsubr
            63 87 -261 -140 hvcurveto
            -105 vlineto
            -73 callsubr
            return
          </CharString>
          <CharString index="52">
            43 -34 -16 9 -25 hhcurveto
            -28 -27 -19 -22 -12 5 -15 19 -29 hvcurveto
            55 -85 29 -91 -84 vvcurveto
            -150 -65 -65 -96 -131 -109 189 282 -4 vhcurveto
            return
          </CharString>
          <CharString index="53">
            rmoveto
            hintmask 10000000
            -66 callsubr
            hintmask 01000000
            -65 callgsubr
            hintmask 10000000
            -15 callgsubr
            hintmask 01000000
            -65 callsubr
            hintmask 10000000
            -64 callgsubr
            hintmask 01000000
            -30 callgsubr
          </CharString>
          <CharString index="54">
            385 -1 callgsubr
            -161 5 callgsubr
            return
          </CharString>
          <CharString index="55">
            39 19 19 23 hvcurveto
            38 vlineto
            23 -19 19 -39 -40 -18 -19 -23 vhcurveto
            -38 vlineto
            -23 18 -19 40 vhcurveto
            return
          </CharString>
          <CharString index="56">
            -69 callsubr
            -91 callsubr
            return
          </CharString>
          <CharString index="57">
            vlineto
            -20 16 -17 return
          </CharString>
          <CharString index="58">
            -22 -53 44 hvcurveto
            -17 14 21 -11 18 hhcurveto
            36 25 23 28 15 -5 13 -8 10 hvcurveto
            46 -36 return
          </CharString>
          <CharString index="59">
            386 -100 callgsubr
            hintmask 0000010101100000
            -101 callsubr
          </CharString>
          <CharString index="60">
            -126 -84 70 124 172 141 return
          </CharString>
          <CharString index="61">
            -21 153 -20 return
          </CharString>
          <CharString index="62">
            13 callsubr
            2 7 6 vvcurveto
            return
          </CharString>
          <CharString index="63">
            77 57 -49 callsubr
            -78 37 -120 hhcurveto
            return
          </CharString>
          <CharString index="64">
            vstem
            364 55 rmoveto
            -128 -79 82 107 165 141 148 175 -44 callsubr
            -265 -213 -208 -208 return
          </CharString>
          <CharString index="65">
            171 363 rmoveto
            -46 callgsubr
            -333 vlineto
            -23 15 -17 35 36 15 17 23 vhcurveto
            -51 464 rmoveto
            -52 callsubr
            return
          </CharString>
          <CharString index="66">
            -218 -139 110 -90 186 return
          </CharString>
          <CharString index="67">
            -21 22 -21 102 43 hstemhm
            return
          </CharString>
          <CharString index="68">
            69 292 60 295 -20 hstem
            71 99 301 107 vstem
            234 -14 rmoveto
            182 162 150 137 81 -48 53 -120 -94 -92 -42 -71 -54 hvcurveto
            368 vlineto
            -54 callgsubr
            return
          </CharString>
          <CharString index="69">
            24 13 8 10 19 vvcurveto
            20 -10 9 -20 vhcurveto
            return
          </CharString>
          <CharString index="70">
            vlineto
            -35 -9 -37 -35 vvcurveto
            -84 43 -56 108 vhcurveto
            222 hlineto
            16 10 13 19 18 -10 14 -16 hvcurveto
            return
          </CharString>
          <CharString index="71">
            rmoveto
            -77 callgsubr
            -14 7 -11 14 -7 vhcurveto
            -36 -83 -6 -13 8 -13 19 -8 rlinecurve
            19 -8 13 4 6 14 33 73 rcurveline
            19 42 5 12 16 vvcurveto
            endchar
          </CharString>
          <CharString index="72">
            hvcurveto
            249 42 rlineto
            111 19 41 return
          </CharString>
          <CharString index="73">
            -20 21 -20 hstemhm
            return
          </CharString>
          <CharString index="74">
            vlineto
            -22 20 -16 33 33 18 16 22 vhcurveto
            return
          </CharString>
          <CharString index="75">
            65 31 callgsubr
            391 111 vstem
            245 -14 rmoveto
            259 172 165 248 137 -106 89 -168 -44 -59 -5 -5 -37 hvcurveto
            -162 -24 -30 -29 -96 vvcurveto
            return
          </CharString>
          <CharString index="76">
            -47 -151 -164 -150 -101 vhcurveto
            -17 7 -14 -16 vvcurveto
            -10 -45 vlineto
            -26 callsubr
            45 -301 hlineto
            -79 callgsubr
            return
          </CharString>
          <CharString index="77">
            174 -95 callsubr
            return
          </CharString>
          <CharString index="78">
            270 205 222 191 return
          </CharString>
          <CharString index="79">
            58 -14 70 -45 -21 358 59 return
          </CharString>
          <CharString index="80">
            21 -16 16 -34 return
          </CharString>
          <CharString index="81">
            -18 -11 -12 -19 -20 11 -12 18 hvcurveto
            return
          </CharString>
          <CharString index="82">
            26 23 6 31 25 vvcurveto
            53 -40 29 -62 -84 -72 -53 -41 -21 18 -12 20 vhcurveto
            59 -34 64 78 hhcurveto
            23 11 -16 -21 -25 -21 -24 -33 -4 hvcurveto
            endchar
          </CharString>
          <CharString index="83">
            -213 222 67 hstem
            288 222 -75 callsubr
            endchar
          </CharString>
          <CharString index="84">
            88 -73 62 -158 -44 -79 -12 -12 -41 return
          </CharString>
          <CharString index="85">
            vlineto
            125 -50 127 -89 80 vhcurveto
            14 -15 -10 3 -13 hhcurveto
            -17 -15 -16 -13 -6 2 -7 10 -11 hvcurveto
            63 -70 30 -108 -113 vvcurveto
            return
          </CharString>
          <CharString index="86">
            16 17 20 return
          </CharString>
          <CharString index="87">
            113 30 108 63 70 -45 callsubr
            -74 callgsubr
            -80 -50 -127 -125 vvcurveto
            return
          </CharString>
          <CharString index="88">
            -319 11 -21 413 -20 return
          </CharString>
          <CharString index="89">
            51 -51 121 return
          </CharString>
          <CharString index="90">
            18 11 12 20 19 -11 12 -18 hvcurveto
            return
          </CharString>
          <CharString index="91">
            -4 callgsubr
            -4 -10 -11 vhcurveto
            -38 -43 -55 -23 -62 hhcurveto
            -59 -38 38 60 hvcurveto
            endchar
          </CharString>
          <CharString index="92">
            23 -14 17 return
          </CharString>
          <CharString index="93">
            -62 callgsubr
            -107 -80 -46 -84 -53 vhcurveto
            return
          </CharString>
          <CharString index="94">
            118 -43 -79 80 hhcurveto
            32 14 21 25 52 -58 42 -114 return
          </CharString>
          <CharString index="95">
            -25 18 -17 return
          </CharString>
          <CharString index="96">
            -326 7 -21 635 -20 return
          </CharString>
          <CharString index="97">
            69 7 -21 23 -21 360 59 return
          </CharString>
          <CharString index="98">
            rmoveto
            -59 callsubr
            -393 16 callgsubr
          </CharString>
          <CharString index="99">
            rmoveto
            -17 callsubr
            -483 hlineto
            -26 callsubr
            endchar
          </CharString>
          <CharString index="100">
            27 16 -22 24 hhcurveto
            20 14 17 37 28 -25 20 -44 return
          </CharString>
          <CharString index="101">
            -83 17 -15 158 vhcurveto
            320 377 rmoveto
            -219 -119 -92 -170 -93 -9 8 39 vhcurveto
            return
          </CharString>
          <CharString index="102">
            -14 69 30 callsubr
            return
          </CharString>
          <CharString index="103">
            75 -309 68 227 59 353 25 callgsubr
            return
          </CharString>
          <CharString index="104">
            vhcurveto
            37 17 -17 26 hhcurveto
            23 11 15 30 26 return
          </CharString>
          <CharString index="105">
            -6 -10 -3 -6 -12 return
          </CharString>
          <CharString index="106">
            76 110 67 return
          </CharString>
          <CharString index="107">
            -95 -130 -121 -79 -63 -25 20 -13 25 31 13 13 20 8 vhcurveto
            48 18 return
          </CharString>
          <CharString index="108">
            vlineto
            22 -18 16 -34 -33 -19 -16 -22 vhcurveto
            return
          </CharString>
          <CharString index="109">
            rmoveto
            -18 14 -11 20 19 14 11 18 vhcurveto
            return
          </CharString>
          <CharString index="110">
            10 -14 67 297 57 return
          </CharString>
          <CharString index="111">
            -247 -226 return
          </CharString>
          <CharString index="112">
            -20 hstem
            60 101 vstem
            111 return
          </CharString>
          <CharString index="113">
            179 -14 67 568 -20 24 -20 return
          </CharString>
          <CharString index="114">
            -55 callgsubr
            20 17 callsubr
            hintmask 10101100
            71 return
          </CharString>
          <CharString index="115">
            167 665 rmoveto
            23 -15 14 -34 -33 -15 -32 callgsubr
            return
          </CharString>
          <CharString index="116">
            -7 11 9 -3 7 hhcurveto
            return
          </CharString>
          <CharString index="117">
            386 -6 callgsubr
            return
          </CharString>
          <CharString index="118">
            40 108 303 return
          </CharString>
          <CharString index="119">
            hstem
            70 101 vstem
            return
          </CharString>
          <CharString index="120">
            vhcurveto
            10 11 return
          </CharString>
          <CharString index="121">
            -21 25 -21 342 73 297 -20 hstemhm
            70 97 return
          </CharString>
          <CharString index="122">
            vlineto
            -23 15 -17 35 36 15 17 23 vhcurveto
            endchar
          </CharString>
          <CharString index="123">
            hstemhm
            70 99 302 108 return
          </CharString>
          <CharString index="124">
            101 74 101 return
          </CharString>
          <CharString index="125">
            -20 24 callsubr
            return
          </CharString>
          <CharString index="126">
            626 rmoveto
            return
          </CharString>
          <CharString index="127">
            hlineto
            18 11 12 22 21 -11 12 -18 hvcurveto
            return
          </CharString>
          <CharString index="128">
            hstemhm
            11 callgsubr
            return
          </CharString>
          <CharString index="129">
            -309 51 128 48 return
          </CharString>
          <CharString index="130">
            hstemhm
            40 107 306 94 return
          </CharString>
          <CharString index="131">
            hstemhm
            50 108 return
          </CharString>
          <CharString index="132">
            -211 -259 -21 1092 -20 hstem
            return
          </CharString>
          <CharString index="133">
            hintmask 0001101100000000
            return
          </CharString>
          <CharString index="134">
            53 -15 53 hstemhm
            hintmask 01000000
            217 return
          </CharString>
          <CharString index="135">
            -21 106 -20 hstem
            20 101 vstem
            71 return
          </CharString>
          <CharString index="136" raw="1">
            1f13100b   
          </CharString>
          <CharString index="137">
            502 69 return
          </CharString>
        <CharString name=".notdef">
          -12 0 68 553 68 hstem
          80 68 252 68 vstem
          80 hmoveto
          388 689 -388 hlineto
          68 -621 rmoveto
          553 252 -553 vlineto
          endchar
        </CharString>
        <CharString name=".null">
          endchar
        </CharString>
        <CharString name="A">
          -35 callgsubr
          hstem
          11 callgsubr
          vstem
          -104 callgsubr
          endchar
        </CharString>
        <CharString name="AE">
          470 -14 66 228 64 216 65 1 -20 21 callsubr
          hintmask 11101100
          932 -105 callgsubr
          -62 -129 -4 -81 -47 hvcurveto
          hintmask 11011100
          62 -36 -52 24 -70 hhcurveto
          -34 callgsubr
          -118 36 -127 67 -73 callgsubr
          337 -196 hlineto
          -74 13 -24 158 178 122 45 46 20 -10 9 -20 vhcurveto
          -773 238 rmoveto
          hintmask 11101100
          -70 callsubr
          endchar
        </CharString>
        <CharString name="Aacute">
          -35 callgsubr
          63 -24 callgsubr
          65 99 337 104 hintmask 11100110
          169 -107 callsubr
          hintmask 00011000
          272 488 -107 callgsubr
        </CharString>
        <CharString name="Acircumflex">
          -35 callgsubr
          70 -40 callsubr
          55 99 70 -1 callsubr
          14 104 hintmask 1110001001000000
          -104 callgsubr
          hintmask 0000110110000000
          261 396 -90 callgsubr
        </CharString>
        <CharString name="Adieresis">
          -35 callgsubr
          100 -55 callgsubr
          55 99 53 17 callsubr
          8 104 hintmask 1110000100100000
          -104 callgsubr
          hintmask 0001010011000000
          104 425 -77 callsubr
        </CharString>
        <CharString name="Agrave">
          -35 callgsubr
          63 -21 153 -20 -67 callsubr
          hintmask 00011000
          172 412 -105 callsubr
        </CharString>
        <CharString name="Aring">
          -35 callgsubr
          80 22 callgsubr
          21 callsubr
          hintmask 11100011
          -104 callgsubr
          hintmask 00011100
          230 576 -58 callsubr
        </CharString>
        <CharString name="Atilde">
          -35 callgsubr
          95 53 -15 53 -67 callsubr
          hintmask 00001000
          250 532 -86 callgsubr
        </CharString>
        <CharString name="B">
          126 -14 65 241 49 227 57 hstemhm
          70 97 301 108 -39 109 hintmask 11110100
          167 292 rmoveto
          191 hlineto
          139 40 -37 -66 -91 -63 -47 -169 -124 -14 11 59 hvcurveto
          -97 -29 rmoveto
          -78 44 -28 141 257 134 97 132 80 -56 40 -133 6 vhcurveto
          hintmask 11111000
          81 32 38 69 60 vvcurveto
          63 -62 60 -160 -77 -68 -10 -17 -47 vhcurveto
          -75 -26 -17 -28 -76 vvcurveto
          173 93 rmoveto
          4 19 37 3 24 hhcurveto
          102 43 -34 -68 -72 -61 -45 -93 hvcurveto
          -147 119 hlineto
          66 8 12 68 15 vhcurveto
          endchar
        </CharString>
        <CharString name="C">
          225 -14 69 502 29 callgsubr
          -43 callsubr
          -133 98 -91 205 126 130 63 75 70 hvcurveto
          -7 callgsubr
        </CharString>
        <CharString name="CR">
          -260 endchar
        </CharString>
        <CharString name="Ccedilla">
          225 22 callsubr
          69 68 502 29 callgsubr
          221 76 -43 callsubr
          -126 88 -88 183 -9 hvcurveto
          -85 -87 rlineto
          -9 -10 -5 -9 -9 vvcurveto
          -14 14 -13 13 7 8 3 5 9 vhcurveto
          -63 callgsubr
          71 77 114 10 113 58 64 68 rlinecurve
          -7 callgsubr
        </CharString>
        <CharString name="D">
          171 -14 66 508 -32 callsubr
          -382 vlineto
          -6 callsubr
          364 vlineto
          -3 callgsubr
        </CharString>
        <CharString name="E">
          -16 callgsubr
          31 callgsubr
          vstem
          -106 callgsubr
          endchar
        </CharString>
        <CharString name="Eacute">
          -86 callsubr
          -134 662 -107 callgsubr
        </CharString>
        <CharString name="Ecircumflex">
          -16 callgsubr
          71 -40 callsubr
          70 104 9 -1 callsubr
          hintmask 1110001000000000
          -106 callgsubr
          hintmask 0000110110000000
          -137 570 -90 callgsubr
        </CharString>
        <CharString name="Edieresis">
          -16 callgsubr
          101 -55 callgsubr
          70 104 -2 17 callsubr
          hintmask 1110000100000000
          -106 callgsubr
          hintmask 0001010011000000
          -288 599 -77 callsubr
        </CharString>
        <CharString name="Egrave">
          -86 callsubr
          -209 586 -105 callsubr
        </CharString>
        <CharString name="Eth">
          171 -14 66 228 67 213 -32 callsubr
          -119 -57 vlineto
          -13 -13 -11 -23 -23 13 -10 13 hvcurveto
          57 -196 hlineto
          -6 callsubr
          181 174 vlineto
          13 13 10 23 23 -13 11 -13 hvcurveto
          -174 116 hlineto
          -3 callgsubr
        </CharString>
        <CharString name="Euro">
          220 -14 69 159 60 74 60 149 69 hstem
          115 118 vstem
          441 348 rmoveto
          16 10 13 17 17 -10 13 -16 hvcurveto
          -168 hlineto
          87 45 78 62 92 hhcurveto
          67 47 -49 callsubr
          -68 37 -110 hhcurveto
          -163 -131 -94 -124 -69 hvcurveto
          -84 hlineto
          -16 -10 -13 -17 -17 10 -13 16 hvcurveto
          56 hlineto
          -9 -24 -7 -25 -5 -25 rrcurveto
          -65 hlineto
          -16 -10 -13 -17 -18 10 -12 16 hvcurveto
          59 -10 hlineto
          -133 68 -85 175 116 120 63 75 70 vhcurveto
          -23 callgsubr
          -67 -48 -93 hhcurveto
          -94 -51 55 104 -6 hvcurveto
          178 hlineto
          16 10 12 18 17 -10 13 -16 hvcurveto
          -177 hlineto
          2 25 5 25 7 24 rrcurveto
          endchar
        </CharString>
        <CharString name="F">
          29 7 -21 295 64 215 65 31 callgsubr
          vstem
          70 28 rmoveto
          -73 callsubr
          253 -102 callgsubr
          -27 -64 -7 -10 -48 hvcurveto
          -114 -23 -30 -40 -124 vvcurveto
          endchar
        </CharString>
        <CharString name="G">
          230 -14 70 168 70 263 29 callgsubr
          473 95 vstem
          40 210 rmoveto
          -131 104 -93 211 196 174 180 84 27 -16 17 -38 vhcurveto
          -257 hlineto
          -16 -10 -11 -23 -24 10 -12 16 hvcurveto
          203 hlineto
          10 3 -3 -6 -26 -103 -133 -161 -122 -87 82 106 165 141 148 180 -44 callsubr
          -270 -213 -208 -208 hvcurveto
          endchar
        </CharString>
        <CharString name="H">
          113 7 -21 312 64 259 -20 31 callgsubr
          325 104 vstem
          603 -82 callgsubr
          -217 -325 217 vlineto
          -81 callgsubr
          -551 vlineto
          -73 callsubr
          270 325 -270 vlineto
          -73 callsubr
          endchar
        </CharString>
        <CharString name="I">
          -11 callsubr
          hstem
          65 104 vstem
          -89 callgsubr
          endchar
        </CharString>
        <CharString name="IJ">
          238 -14 62 -41 -21 635 -20 hstemhm
          65 104 75 106 284 104 hintmask 01110000
          -89 callgsubr
          hintmask 10101100
          465 231 rmoveto
          -115 -66 -96 -119 -62 -36 30 65 -1 vhcurveto
          26 -15 14 -31 -34 -26 -29 -41 -71 68 -56 101 203 122 152 146 vhcurveto
          295 vlineto
          -81 callgsubr
          endchar
        </CharString>
        <CharString name="Iacute">
          -36 callgsubr
          10 740 -107 callgsubr
        </CharString>
        <CharString name="Icircumflex">
          -11 callsubr
          95 -40 callsubr
          -8 76 -3 104 9 67 hintmask 11000010
          -89 callgsubr
          hintmask 00011101
          14 648 -57 callsubr
        </CharString>
        <CharString name="Idieresis">
          -11 callsubr
          125 -55 callgsubr
          -20 101 -16 104 -14 101 hintmask 1100000100000000
          -89 callgsubr
          hintmask 0010101010000000
          -138 677 -44 callgsubr
        </CharString>
        <CharString name="Igrave">
          -36 callgsubr
          -60 664 -105 callsubr
        </CharString>
        <CharString name="Itilde">
          -11 callsubr
          120 53 -15 53 -48 callgsubr
          hintmask 00010000
          3 784 -98 callsubr
        </CharString>
        <CharString name="J">
          4 -14 62 573 -20 hstem
          10 106 284 104 vstem
          400 259 rmoveto
          -115 -66 -96 -119 -62 -36 30 65 -1 vhcurveto
          26 -15 14 -31 -34 -26 -29 -41 -71 68 -56 101 203 122 152 146 vhcurveto
          295 vlineto
          -81 callgsubr
          endchar
        </CharString>
        <CharString name="Jcircumflex">
          4 -14 62 573 -20 95 -40 callsubr
          10 106 198 76 10 104 -4 67 hintmask 1100010100000000
          400 259 rmoveto
          -115 -66 -96 -119 -62 -36 30 65 -1 vhcurveto
          26 -15 14 -31 -34 -26 -29 -41 -71 68 -56 101 203 122 152 146 vhcurveto
          295 vlineto
          -81 callgsubr
          hintmask 0001101010000000
          105 97 -101 callgsubr
          hintmask 0010101010000000
          -106 callsubr
          hintmask 0001101010000000
          -49 callgsubr
        </CharString>
        <CharString name="K">
          19 7 -21 23 -21 554 79 hstemhm
          70 104 hintmask 10110000
          174 -95 callgsubr
          294 vlineto
          hintmask 01110000
          -189 33 142 -145 153 hhcurveto
          35 19 18 24 26 -11 12 -34 6 hvcurveto
          -150 26 -125 118 100 vvcurveto
          94 103 130 88 27 17 -4 -12 26 vhcurveto
          -4 9 6 -2 12 hhcurveto
          18 17 18 32 32 -28 19 -62 -114 -128 -113 -177 -53 hvcurveto
          endchar
        </CharString>
        <CharString name="L">
          -86 0 64 557 -20 hstem
          69 104 vstem
          -38 callgsubr
          endchar
        </CharString>
        <CharString name="Ldotaccent">
          -86 0 64 354 -21 106 -20 138 -20 hstemhm
          69 104 82 101 hintmask 10011000
          -38 callgsubr
          hintmask 01100100
          -127 333 rmoveto
          -96 callsubr
        </CharString>
        <CharString name="Lslash">
          -86 0 64 557 -20 hstem
          69 104 vstem
          2 callgsubr
          101 vlineto
          133 29 18 4 7 14 -4 20 rlinecurve
          -4 18 -12 9 -18 -4 -120 -27 rcurveline
          212 1 callsubr
          -234 vlineto
          -41 -9 -17 -4 -8 -14 4 -18 rlinecurve
          4 -20 13 -9 18 4 27 6 rcurveline
          -38 -37 callsubr
          endchar
        </CharString>
        <CharString name="M">
          124 7 -21 205 71 359 -20 31 callgsubr
          336 104 vstem
          174 -95 callgsubr
          293 vlineto
          -46 16 42 -84 108 hhcurveto
          82 54 72 90 34 hvcurveto
          -325 vlineto
          -73 callsubr
          551 vlineto
          -81 callgsubr
          -51 vlineto
          -105 -79 -161 -89 -72 -83 136 98 -13 vhcurveto
          endchar
        </CharString>
        <CharString name="N">
          6 callsubr
          hstemhm
          70 105 405 104 hintmask 11011000
          -75 callgsubr
          hintmask 10111000
          -55 callsubr
          endchar
        </CharString>
        <CharString name="Nacute">
          6 callsubr
          84 -21 153 -20 -72 callsubr
          hintmask 00011000
          249 244 -107 callgsubr
        </CharString>
        <CharString name="Ntilde">
          6 callsubr
          116 53 -15 53 -72 callsubr
          hintmask 00001000
          224 288 -86 callgsubr
        </CharString>
        <CharString name="O">
          -17 callgsubr
          -103 callsubr
          endchar
        </CharString>
        <CharString name="OE">
          490 -14 66 229 64 209 69 2 -20 hstemhm
          30 callgsubr
          353 104 hintmask 11011100
          952 -104 callsubr
          -10 -2 rlineto
          hintmask 11101100
          12 -39 -45 5 -48 hhcurveto
          4 callsubr
          -190 -41 callsubr
          66 63 13 23 57 hvcurveto
          -26 17 41 -10 102 hhcurveto
          117 107 25 24 44 hvcurveto
          -38 callsubr
          -584 -51 rmoveto
          -47 callsubr
          133 174 25 23 -2 -5 22 hvcurveto
          -24 -34 -8 -47 -65 vvcurveto
          -317 vlineto
          -3 vlineto
          -15 -43 -48 -11 -52 hhcurveto
          endchar
        </CharString>
        <CharString name="Oacute">
          -69 callgsubr
          29 211 -107 callgsubr
        </CharString>
        <CharString name="Ocircumflex">
          -25 callgsubr
          70 -40 callsubr
          30 callgsubr
          143 -1 callsubr
          141 116 hintmask 1100010010000000
          -103 callsubr
          26 callsubr
          19 119 -99 callgsubr
        </CharString>
        <CharString name="Odieresis">
          -25 callgsubr
          100 -55 callgsubr
          30 callgsubr
          133 17 callsubr
          128 116 hintmask 1100001001000000
          -103 callsubr
          hintmask 0010100110000000
          -131 148 -92 callgsubr
        </CharString>
        <CharString name="Ograve">
          -69 callgsubr
          -58 135 -105 callsubr
        </CharString>
        <CharString name="Oslash">
          -17 callgsubr
          513 19 callsubr
          4 callsubr
          -193 -218 -67 25 -55 47 -40 hvcurveto
          -19 -19 rlineto
          -8 -8 -4 -9 -10 vvcurveto
          -12 6 -14 14 -13 vhcurveto
          -13 14 13 -6 12 hhcurveto
          10 10 5 8 8 hvcurveto
          39 41 rlineto
          -11 38 43 -6 48 hhcurveto
          -29 callsubr
          63 -27 54 -47 39 hvcurveto
          22 23 rlineto
          7 8 4 9 10 vvcurveto
          13 -6 13 -14 13 vhcurveto
          13 -12 -14 6 -12 hhcurveto
          -11 -10 -5 -8 -8 hvcurveto
          -41 -43 rlineto
          12 -38 -44 7 -47 hhcurveto
          -40 -69 rmoveto
          42 39 -9 -15 33 hvcurveto
          -391 -407 rlineto
          -25 32 -13 41 50 vvcurveto
          172 141 136 174 vhcurveto
          222 -199 rmoveto
          -28 callgsubr
          -41 -35 7 14 -31 vhcurveto
          391 407 rlineto
          27 -33 16 -43 -49 vvcurveto
          endchar
        </CharString>
        <CharString name="Otilde">
          -25 callgsubr
          95 53 -15 53 -91 callgsubr
          hintmask 00010000
          10 255 -98 callsubr
        </CharString>
        <CharString name="P">
          63 11 -21 241 56 282 57 31 callgsubr
          304 105 vstem
          174 239 rmoveto
          -5 29 34 -3 25 hhcurveto
          204 117 121 124 -23 callsubr
          hvcurveto
          -84 callsubr
          94 53 -40 -71 -105 -65 -66 -152 -30 -35 2 4 -22 hvcurveto
          endchar
        </CharString>
        <CharString name="Q">
          -17 callgsubr
          694 -37 rmoveto
          39 -24 41 37 34 vvcurveto
          14 -7 14 -17 9 vhcurveto
          -100 52 rlineto
          100 82 61 113 105 vvcurveto
          134 -120 93 -178 -59 callgsubr
          83 78 21 35 67 vhcurveto
          -91 515 rmoveto
          130 92 -78 -121 -83 -41 -83 -69 -58 hvcurveto
          -128 68 -39 21 -40 -66 34 -21 rlinecurve
          88 -55 rlineto
          -17 -40 -44 -9 -48 hhcurveto
          -60 callgsubr
          endchar
        </CharString>
        <CharString name="R">
          89 9 -5 callgsubr
          hstemhm
          70 104 304 105 -89 105 hintmask 10111010
          -78 callsubr
          hintmask 01111100
          -97 callgsubr
          endchar
        </CharString>
        <CharString name="Racute">
          89 9 -5 callgsubr
          63 23 callgsubr
          104 304 105 -89 105 hintmask 1011001010000000
          -78 callsubr
          hintmask 0111001100000000
          -97 callgsubr
          hintmask 0000110000000000
          215 457 -107 callgsubr
        </CharString>
        <CharString name="Rcaron">
          89 9 -5 callgsubr
          49 10 callgsubr
          70 104 19 67 110 76 32 105 -89 105 hintmask 1011000100010000
          -78 callsubr
          hintmask 0111000100100000
          -97 callgsubr
          hintmask 0000110011000000
          81 509 rmoveto
          hintmask 0000101011000000
          -96 callgsubr
          hintmask 0000110011000000
          3 callgsubr
        </CharString>
        <CharString name="Rcommaaccent">
          89 -131 -20 160 -5 callgsubr
          hstemhm
          70 104 104 94 106 105 -89 105 hintmask 0101110010000000
          -78 callsubr
          hintmask 0011110100000000
          -97 callgsubr
          hintmask 1000001000000000
          198 -476 -84 callgsubr
        </CharString>
        <CharString name="S">
          137 -14 67 507 66 hstem
          110 112 317 114 vstem
          338 53 rmoveto
          -91 -75 53 63 -20 hvcurveto
          50 -16 -16 14 -33 hhcurveto
          -33 -23 -25 -38 -105 118 -79 184 190 130 115 87 64 -30 38 -97 28 hvcurveto
          -213 61 rlineto
          -71 20 -20 22 39 vvcurveto
          54 53 46 91 75 57 -25 -55 46 vhcurveto
          -13 11 21 -11 26 hhcurveto
          41 23 26 26 69 -146 49 -120 -188 -102 -78 -99 -73 36 -45 98 -29 hvcurveto
          196 -58 rlineto
          85 -25 14 -14 -38 vvcurveto
          -58 -70 -56 -131 vhcurveto
          endchar
        </CharString>
        <CharString name="T">
          8 7 -21 559 74 hstem
          232 104 vstem
          51 619 rmoveto
          -19 -12 -11 -26 -26 12 -11 19 hvcurveto
          181 -517 hlineto
          -73 callsubr
          517 181 vlineto
          19 12 11 26 26 -12 11 -19 hvcurveto
          endchar
        </CharString>
        <CharString name="Thorn">
          31 11 -21 129 56 282 57 109 -20 hstem
          68 104 304 105 vstem
          172 127 rmoveto
          -5 29 34 -3 25 hhcurveto
          206 115 121 124 88 -73 62 -158 -52 -88 -19 -9 -38 hvcurveto
          99 vlineto
          22 -18 16 -33 -33 -20 -16 -22 vhcurveto
          -557 -33 callsubr
          319 -45 callgsubr
          94 53 -40 -71 -105 -65 -66 -152 -30 -35 2 4 -22 hvcurveto
          endchar
        </CharString>
        <CharString name="U">
          4 callgsubr
          hstem
          60 104 331 99 vstem
          -102 callsubr
          endchar
        </CharString>
        <CharString name="Uacute">
          -76 callsubr
          81 713 -107 callgsubr
        </CharString>
        <CharString name="Ucircumflex">
          4 callgsubr
          91 -40 callsubr
          60 104 24 -1 callsubr
          54 99 hintmask 1100010010000000
          -102 callsubr
          26 callsubr
          73 621 -99 callgsubr
        </CharString>
        <CharString name="Udieresis">
          4 callgsubr
          121 -55 callgsubr
          60 104 7 17 callsubr
          48 99 hintmask 1100001001000000
          -102 callsubr
          hintmask 0010100110000000
          -84 650 -92 callgsubr
        </CharString>
        <CharString name="Ugrave">
          -76 callsubr
          -19 637 -105 callsubr
        </CharString>
        <CharString name="V">
          49 -11 68 566 -34 callsubr
          hintmask 11000000
          531 623 rmoveto
          -17 -14 -7 -20 -6 hvcurveto
          -421 -125 -13 -118 -54 hhcurveto
          -30 -23 37 497 -120 hvcurveto
          hintmask 10100000
          22 -5 -22 11 -23 hhcurveto
          -31 -33 -20 -37 6 hvcurveto
          -393 67 75 -185 112 hhcurveto
          130 69 91 489 113 hvcurveto
          hintmask 11000000
          36 8 -35 18 -29 hhcurveto
          endchar
        </CharString>
        <CharString name="W">
          317 -14 74 557 -34 callsubr
          60 106 -106 123 202 86 -86 106 -81 61 243 108 hintmask 1101010010000000
          395 600 rmoveto
          -27 -24 -23 -25 -14 0 -12 8 -18 hvcurveto
          22 -50 11 -51 -52 vvcurveto
          -164 -72 -131 -65 -49 -33 40 158 vhcurveto
          hintmask 1100100110000000
          62 5 89 12 160 vhcurveto
          26 2 -16 22 -36 hhcurveto
          -28 -15 -14 -37 -6 hvcurveto
          -17 -107 -7 -78 -143 vvcurveto
          -176 68 -76 83 80 76 64 109 43 vhcurveto
          -104 53 -69 71 162 126 177 239 vhcurveto
          hintmask 1011010010000000
          140 -55 76 -47 -35 -27 -23 -25 -17 2 -13 8 -16 vhcurveto
          31 -63 15 -60 -61 vvcurveto
          -163 -75 -116 -73 -53 -42 39 130 vhcurveto
          hintmask 1101001010000000
          75 20 46 71 vvcurveto
          107 -43 71 -53 vhcurveto
          endchar
        </CharString>
        <CharString name="X">
          60 11 -21 631 -34 callsubr
          256 107 hintmask 10110000
          308 355 rmoveto
          155 -28 -65 112 -136 hhcurveto
          -53 -16 -19 -38 -35 13 -18 21 hvcurveto
          30 11 18 29 hhcurveto
          65 77 -101 -94 -119 -81 -114 -125 -21 hvcurveto
          -29 -5 -10 -15 -27 vvcurveto
          -27 15 -17 30 155 85 165 172 12 vhcurveto
          -177 15 87 -160 157 hhcurveto
          25 16 19 24 27 -14 17 -25 4 hvcurveto
          -123 19 -83 115 120 vvcurveto
          99 80 95 61 vhcurveto
          29 11 -17 30 hhcurveto
          21 15 22 34 hvcurveto
          hintmask 11010000
          36 -19 17 -49 -137 -69 -113 -153 -28 vhcurveto
          endchar
        </CharString>
        <CharString name="Y">
          64 7 -21 548 80 hstem
          258 104 vstem
          -56 callsubr
          endchar
        </CharString>
        <CharString name="Yacute">
          64 7 -21 548 80 75 -24 callgsubr
          258 104 hintmask 11001000
          -56 callsubr
          hintmask 00110000
          7 740 -107 callgsubr
        </CharString>
        <CharString name="Z">
          8 0 72 473 74 hstem
          230 619 rmoveto
          -137 -49 -53 -64 -43 12 -17 34 hvcurveto
          88 -92 103 185 hhcurveto
          147 hlineto
          -273 -330 rlineto
          -67 -81 -48 -61 -28 vvcurveto
          -30 16 -15 43 vhcurveto
          218 hlineto
          142 89 63 57 41 -18 23 -44 hvcurveto
          -88 75 -112 -171 hhcurveto
          -153 hlineto
          336 412 rlineto
          25 31 20 25 30 vvcurveto
          34 -18 15 -46 vhcurveto
          endchar
        </CharString>
        <CharString name="a">
          -28 callsubr
          23 callsubr
          hintmask 10111000
          -89 callsubr
          hintmask 01111000
          -93 callgsubr
          hintmask 10111000
          -70 callgsubr
          vhcurveto
          endchar
        </CharString>
        <CharString name="aacute">
          -72 callgsubr
          36 220 -107 callgsubr
        </CharString>
        <CharString name="acircumflex">
          -28 callsubr
          89 -40 callsubr
          40 107 58 -1 callsubr
          -5 94 hintmask 1010001001000000
          -89 callsubr
          hintmask 0110001001000000
          -93 callgsubr
          hintmask 1010001001000000
          -70 callgsubr
          vhcurveto
          hintmask 0000110110000000
          45 128 -90 callgsubr
        </CharString>
        <CharString name="acute">
          -385 489 -46 callsubr
          hstem
          149 568 -107 callgsubr
        </CharString>
        <CharString name="acute.cap">
          -385 717 -46 callsubr
          hstem
          149 796 -107 callgsubr
        </CharString>
        <CharString name="adieresis">
          -28 callsubr
          -2 callgsubr
          107 31 17 callsubr
          -1 94 hintmask 1010000100100000
          -89 callsubr
          hintmask 0110000100100000
          -93 callgsubr
          hintmask 1010000100100000
          -70 callgsubr
          vhcurveto
          hintmask 0001010011000000
          -122 157 -77 callsubr
        </CharString>
        <CharString name="ae">
          320 -14 67 143 48 116 47 hstemhm
          20 100 -12 89 193 61 308 101 hintmask 11101110
          696 -6 callgsubr
          -112 -102 -52 -70 -38 hvcurveto
          6 20 1 10 11 vvcurveto
          46 -58 35 -94 -131 -60 -36 -46 -27 16 -15 33 27 13 9 17 26 38 25 55 64 36 -21 -47 -20 -4 -27 -9 -31 vhcurveto
          14 -25 -59 16 -41 hhcurveto
          hintmask 11110110
          -147 -85 -85 -77 -61 50 -35 107 84 88 49 54 31 hvcurveto
          -54 18 35 -49 93 hhcurveto
          -19 callgsubr
          5 9 11 vvcurveto
          19 -8 9 -14 -2 callsubr
          vhcurveto
          -27 callgsubr
          33 52 -35 callsubr
          46 62 -88 callsubr
          -404 -154 rmoveto
          49 35 -13 -16 22 hvcurveto
          -1 -6 rlineto
          -57 -12 -58 -55 -90 hhcurveto
          -55 -29 21 28 50 59 48 80 hvcurveto
          endchar
        </CharString>
        <CharString name="agrave">
          -72 callgsubr
          -44 144 -105 callsubr
        </CharString>
        <CharString name="ampersand">
          26 -14 57 219 57 79 -20 181 67 hstemhm
          40 108 -75 96 186 98 -34 97 hintmask 11110101
          558 261 rmoveto
          18 11 10 19 18 -11 10 -18 hvcurveto
          -42 40 hlineto
          23 -13 19 callgsubr
          -13 -32 callgsubr
          -39 -61 vlineto
          -140 -49 38 65 75 65 62 71 hvcurveto
          hintmask 11110110
          33 17 -12 -22 -21 17 -14 28 31 22 27 47 38 -29 24 -79 -138 -134 -109 -105 -48 36 -51 89 -20 hvcurveto
          hintmask 11111001
          -96 -32 -62 -80 -72 vvcurveto
          -65 65 -58 157 181 73 68 123 vhcurveto
          84 vlineto
          -97 1 rmoveto
          -79 vlineto
          -112 -27 -28 -99 -102 -43 34 68 69 57 48 97 vhcurveto
          endchar
        </CharString>
        <CharString name="aring">
          -28 callsubr
          99 22 callgsubr
          23 callsubr
          hintmask 10100011
          -89 callsubr
          hintmask 01100011
          -93 callgsubr
          hintmask 10100011
          -70 callgsubr
          vhcurveto
          hintmask 00011100
          -4 308 -58 callsubr
        </CharString>
        <CharString name="asciicircum">
          -28 702 -20 hstem
          266 702 rmoveto
          -11 -8 -5 -9 -8 hvcurveto
          -192 -276 -10 -14 5 -19 17 -12 rlinecurve
          17 -11 19 0 10 15 161 239 rcurveline
          161 -239 10 -15 19 0 17 11 rlinecurve
          17 12 5 19 -10 14 -192 276 rcurveline
          10 -8 -9 4 -10 hhcurveto
          endchar
        </CharString>
        <CharString name="asciitilde">
          -201 224 50 -30 -21 38 50 1 -20 hstemhm
          hintmask 01100000
          231 261 rmoveto
          22 10 -4 -15 7 hvcurveto
          -13 6 14 -6 13 hhcurveto
          20 16 18 17 26 -34 27 -52 hvcurveto
          hintmask 10010000
          -61 -28 -37 -39 hhcurveto
          -20 -10 7 10 -5 hvcurveto
          13 -6 -13 8 -16 hhcurveto
          -21 -14 -15 -18 -29 33 -26 53 hvcurveto
          hintmask 01100000
          50 41 37 34 hhcurveto
          endchar
        </CharString>
        <CharString name="asterisk">
          -147 246 537 rmoveto
          90 22 rlineto
          12 3 5 11 11 vvcurveto
          21 -18 24 -20 -9 vhcurveto
          -84 -36 8 92 rlineto
          17 1 -16 9 -17 hhcurveto
          -17 -18 -9 -17 2 hvcurveto
          8 -91 -84 36 rlineto
          -20 9 -18 -25 -21 vvcurveto
          -11 5 -10 12 -3 vhcurveto
          90 -22 -62 -70 -21 -26 53 -43 20 30 rlinecurve
          49 79 49 -79 20 -30 53 43 -21 26 rlinecurve
          endchar
        </CharString>
        <CharString name="at">
          319 -166 61 84 62 239 53 80 65 hstem
          40 90 94 84 267 67 108 89 vstem
          483 280 rmoveto
          55 37 -27 -52 -87 -97 -73 -85 -53 -32 23 55 95 89 66 86 hvcurveto
          100 198 rmoveto
          -283 -260 -187 -251 -127 116 -79 135 79 29 13 29 23 -23 -4 -39 -114 -93 63 116 185 212 154 207 123 78 -59 -113 -107 -48 -96 -44 -12 -4 8 26 hvcurveto
          108 vlineto
          2 7 27 17 vvcurveto
          75 -59 32 -80 -126 -160 -113 -125 -75 39 -41 101 79 73 37 74 62 vhcurveto
          -61 vlineto
          -32 15 -18 36 112 98 169 134 124 -119 72 -137 vhcurveto
          endchar
        </CharString>
        <CharString name="atilde">
          -28 callsubr
          114 53 -15 53 -93 callsubr
          hintmask 00001000
          20 264 -86 callgsubr
        </CharString>
        <CharString name="b">
          58 -14 -39 callsubr
          -475 vlineto
          -25 -11 -14 -30 vvcurveto
          -73 54 -59 120 vhcurveto
          -8 callgsubr
        </CharString>
        <CharString name="backslash">
          -178 284 -16 rmoveto
          -15 6 11 -9 17 hhcurveto
          8 9 2 5 11 hvcurveto
          33 14 7 20 -9 22 -279 678 rcurveline
          15 -6 -11 8 -16 hhcurveto
          -8 -10 -2 -4 -10 hvcurveto
          -34 -14 -7 -20 9 -22 rrcurveto
          endchar
        </CharString>
        <CharString name="bar">
          -10 callgsubr
          -1012 15 callsubr
        </CharString>
        <CharString name="braceleft">
          15 callgsubr
          82 104 vstem
          96 268 rmoveto
          36 2 54 52 86 vvcurveto
          60 vlineto
          -20 callsubr
          -101 vlineto
          -41 -14 -18 -19 vhcurveto
          -10 hlineto
          -18 -11 -15 -22 -22 11 -15 18 hvcurveto
          10 hlineto
          19 14 -18 -41 hvcurveto
          -101 -14 callgsubr
          108 113 vvcurveto
          60 vlineto
          86 -54 52 -36 2 vhcurveto
          endchar
        </CharString>
        <CharString name="braceright">
          15 callgsubr
          115 104 vstem
          205 264 rmoveto
          -36 -2 -54 -52 -86 vvcurveto
          -60 vlineto
          -113 -30 -108 -11 callgsubr
          101 vlineto
          41 14 18 19 vhcurveto
          10 hlineto
          18 11 15 22 22 -11 15 -18 hvcurveto
          -10 hlineto
          -19 -14 18 41 hvcurveto
          101 -22 callsubr
          -60 vlineto
          -86 54 -52 36 -2 vhcurveto
          endchar
        </CharString>
        <CharString name="bracketleft">
          -194 -280 67 958 67 12 callsubr
          70 772 rmoveto
          -1012 vlineto
          -23 15 -17 35 vhcurveto
          147 20 callsubr
          -96 958 96 20 callsubr
          -147 hlineto
          -35 -15 -17 -23 hvcurveto
          endchar
        </CharString>
        <CharString name="bracketright">
          -194 -280 67 958 67 hstem
          195 101 vstem
          296 772 rmoveto
          23 -15 17 -35 vhcurveto
          -147 21 callgsubr
          96 -958 -96 21 callgsubr
          147 hlineto
          35 15 17 23 hvcurveto
          endchar
        </CharString>
        <CharString name="brokenbar">
          -10 callgsubr
          -382 vlineto
          -23 15 -17 35 36 15 17 23 vhcurveto
          -258 vmoveto
          -46 callgsubr
          -372 15 callsubr
        </CharString>
        <CharString name="bullet">
          -319 157 -21 126 -20 hstem
          60 121 vstem
          121 136 rmoveto
          41 19 19 25 hvcurveto
          38 vlineto
          25 -19 19 -41 -42 -19 -19 -25 vhcurveto
          -38 vlineto
          -25 19 -19 42 vhcurveto
          endchar
        </CharString>
        <CharString name="c">
          5 -14 70 290 61 hstem
          40 107 -31 callgsubr
          107 88 45 50 50 hvcurveto
          -16 callsubr
        </CharString>
        <CharString name="caron">
          -267 475 8 callgsubr
          620 -56 callgsubr
        </CharString>
        <CharString name="caron.cap">
          -267 696 8 callgsubr
          841 -56 callgsubr
        </CharString>
        <CharString name="ccedilla">
          5 22 callsubr
          68 70 290 61 hstem
          40 107 138 76 -31 callgsubr
          hvcurveto
          12 hlineto
          -84 -86 rlineto
          -9 -10 -5 -9 -9 vvcurveto
          -7 3 -7 6 -5 vhcurveto
          -6 6 6 -2 6 hhcurveto
          7 8 3 5 9 hvcurveto
          -63 callgsubr
          79 86 67 15 54 33 36 36 rlinecurve
          -16 callsubr
        </CharString>
        <CharString name="cedilla">
          273 22 callsubr
          hstem
          378 76 vstem
          397 8 rmoveto
          11 14 2 7 -15 13 -14 13 -6 -2 -12 -13 -137 -140 rcurveline
          -16 -17 -2 -18 13 -12 14 -13 11 4 17 9 rrcurveto
          -63 callgsubr
          endchar
        </CharString>
        <CharString name="cent">
          2 -88 -21 95 70 -48 -21 359 61 94 -20 hstemhm
          40 107 89 83 hintmask 11011110
          326 465 rmoveto
          21 -13 15 -32 -31 -14 -15 -21 vhcurveto
          -89 vlineto
          -111 -51 -85 -104 -100 vvcurveto
          -82 57 -53 108 vhcurveto
          hintmask 10111110
          8 8 1 8 hhcurveto
          -60 vlineto
          -21 14 -15 31 32 13 15 21 vhcurveto
          80 vlineto
          49 18 43 27 29 29 rrcurveto
          -4 callgsubr
          -5 -9 -11 vhcurveto
          hintmask 11011110
          -40 -45 -56 -21 -51 hhcurveto
          -57 -38 38 60 99 86 93 111 hvcurveto
          -13 callsubr
          -16 -16 -2 -2 -15 hvcurveto
          endchar
        </CharString>
        <CharString name="circumflex">
          -267 496 -40 callsubr
          20 -1 callsubr
          hintmask 01111000
          211 476 -101 callgsubr
          hintmask 10111000
          -106 callsubr
          hintmask 01111000
          -49 callgsubr
        </CharString>
        <CharString name="circumflex.cap">
          -267 717 -21 103 43 hstem
          20 -1 callsubr
          vstem
          211 697 -101 callgsubr
          -106 callsubr
          -49 callgsubr
        </CharString>
        <CharString name="colon">
          -339 17 -21 359 -21 callgsubr
          -253 vmoveto
          -96 callsubr
        </CharString>
        <CharString name="comma">
          -339 102 -20 hstem
          60 101 vstem
          161 65 -36 callsubr
        </CharString>
        <CharString name="commaaccent">
          -422 80 -20 hstem
          24 94 vstem
          118 46 -84 callgsubr
        </CharString>
        <CharString name="copyright">
          195 -14 53 80 52 212 45 74 53 hstem
          41 83 65 78 365 82 vstem
          267 243 rmoveto
          72 64 68 81 vhcurveto
          86 -31 -58 59 hhcurveto
          24 9 16 18 38 -42 31 -83 -124 -121 -108 -102 -60 42 -39 79 77 111 47 39 11 -10 9 -12 -6 -6 -2 -7 -7 hvcurveto
          -29 -33 -40 -16 -46 hhcurveto
          -42 -29 27 45 hvcurveto
          176 312 rmoveto
          -220 -182 -164 -188 -131 97 -86 172 240 164 189 167 125 -109 88 -162 hvcurveto
          -32 -53 rmoveto
          138 83 -69 -116 -137 -130 -141 -167 -135 -76 65 121 154 135 123 152 hvcurveto
          endchar
        </CharString>
        <CharString name="currency">
          -48 187 55 165 55 hstem
          87 79 181 78 vstem
          79 194 rmoveto
          -13 -12 2 -18 14 -14 14 -14 17 -2 13 13 42 42 rcurveline
          -2 9 10 0 12 hhcurveto
          42 40 12 19 34 hvcurveto
          51 -50 13 -13 18 2 14 14 rlinecurve
          13 14 2 17 -13 13 -45 44 rcurveline
          35 36 22 45 42 vvcurveto
          19 -5 16 -11 13 vhcurveto
          24 24 13 12 -3 18 -13 14 rlinecurve
          -14 14 -18 2 -13 -13 -41 -41 rcurveline
          1 -10 -11 1 -11 hhcurveto
          -42 -39 -12 -19 -34 hvcurveto
          -50 51 -13 13 -18 -3 -13 -13 rlinecurve
          -14 -14 -2 -18 12 -13 44 -44 rcurveline
          -35 -36 -21 -44 -42 vvcurveto
          -20 5 -16 11 -14 vhcurveto
          177 189 rmoveto
          41 26 -19 -37 -57 -56 -52 -61 -38 -26 20 37 56 52 52 62 hvcurveto
          endchar
        </CharString>
        <CharString name="d">
          -17 -14 68 302 51 295 -20 hstem
          40 102 233 98 vstem
          375 196 rmoveto
          -37 -1 -29 -2 -28 vhcurveto
          -34 -54 -48 -14 -43 hhcurveto
          -46 -39 38 61 115 90 88 95 23 11 -1 -3 14 hvcurveto
          98 310 rmoveto
          -54 callgsubr
          -257 vlineto
          1 -11 -17 1 -19 hhcurveto
          -137 -150 -138 -147 -83 56 -53 114 69 98 37 50 67 hvcurveto
          27 20 6 8 10 8 -4 10 19 vvcurveto
          endchar
        </CharString>
        <CharString name="degree">
          -102 427 55 165 55 hstem
          40 84 171 83 vstem
          265 702 rmoveto
          -123 -102 -101 -93 -48 33 -33 79 125 101 104 91 48 -33 32 -80 hvcurveto
          -32 -55 rmoveto
          38 24 -22 -34 -57 -51 -52 -61 -36 -23 22 35 56 47 52 62 hvcurveto
          endchar
        </CharString>
        <CharString name="dieresis">
          -244 526 7 callsubr
          505 -100 callgsubr
          hintmask 01011100
          -101 callsubr
        </CharString>
        <CharString name="dieresis.cap">
          -244 736 7 callsubr
          715 -100 callgsubr
          hintmask 01011100
          -101 callsubr
        </CharString>
        <CharString name="divide">
          -213 133 -21 110 67 110 -20 hstem
          134 81 vstem
          174 314 rmoveto
          29 12 13 17 hvcurveto
          25 vlineto
          18 -12 12 -29 -27 -13 -12 -18 vhcurveto
          -25 vlineto
          -17 13 -13 27 vhcurveto
          -202 vmoveto
          29 12 12 18 hvcurveto
          25 vlineto
          16 -12 14 -29 -27 -13 -14 -16 vhcurveto
          -25 vlineto
          -18 13 -12 27 vhcurveto
          114 110 -75 callsubr
          endchar
        </CharString>
        <CharString name="dollar">
          125 -79 -21 93 66 495 64 104 -20 hstemhm
          130 110 66 101 -88 101 72 111 hintmask 11111101
          335 59 rmoveto
          -69 -66 40 74 -25 hvcurveto
          44 -15 -14 10 -31 hhcurveto
          -35 -19 -30 -31 hvcurveto
          7 -100 108 -68 130 -5 rrcurveto
          -53 vlineto
          -23 15 -17 35 36 15 17 23 vhcurveto
          64 vlineto
          117 31 79 88 67 vvcurveto
          62 -29 47 -95 27 vhcurveto
          -169 48 rlineto
          -55 15 -15 34 34 vvcurveto
          49 54 48 75 55 29 -16 -58 52 vhcurveto
          -12 10 21 -11 25 hhcurveto
          40 23 25 26 hvcurveto
          hintmask 11111011
          61 -112 42 -92 7 vhcurveto
          64 vlineto
          -46 callgsubr
          -70 vlineto
          -113 -22 -76 -70 -76 vvcurveto
          -78 48 -49 84 -24 vhcurveto
          133 -38 rlineto
          83 -24 14 -19 -37 vvcurveto
          -57 -58 -59 -99 vhcurveto
          endchar
        </CharString>
        <CharString name="dotaccentcmb">
          -419 526 28 callsubr
          505 rmoveto
          -96 callsubr
        </CharString>
        <CharString name="dotaccentcmb.cap">
          -419 726 28 callsubr
          705 rmoveto
          -96 callsubr
        </CharString>
        <CharString name="dotlessi">
          -19 callsubr
          hstem
          70 101 vstem
          -88 callgsubr
          endchar
        </CharString>
        <CharString name="dotlessj">
          9 callgsubr
          hstemhm
          70 99 -81 101 hintmask 11100000
          70 50 rmoveto
          hintmask 11010000
          -61 callsubr
          hintmask 11100000
          -41 callgsubr
        </CharString>
        <CharString name="e">
          3 callsubr
          hstem
          40 109 300 101 vstem
          -103 callgsubr
          endchar
        </CharString>
        <CharString name="eacute">
          -79 callsubr
          10 218 -107 callgsubr
        </CharString>
        <CharString name="ecircumflex">
          3 callsubr
          89 -40 callsubr
          40 109 24 -1 callsubr
          23 101 hintmask 1100010010000000
          -103 callgsubr
          26 callsubr
          11 126 -99 callgsubr
        </CharString>
        <CharString name="edieresis">
          3 callsubr
          -2 callgsubr
          109 14 17 callsubr
          10 101 hintmask 1100001001000000
          -103 callgsubr
          hintmask 0010100110000000
          -139 155 -92 callgsubr
        </CharString>
        <CharString name="egrave">
          -79 callsubr
          -69 142 -105 callsubr
        </CharString>
        <CharString name="eight">
          4 -15 59 277 45 195 65 hstemhm
          40 105 -24 98 213 104 -89 89 hintmask 11101100
          399 19 callsubr
          -156 -122 -119 -110 -34 24 -25 33 -14 hvcurveto
          hintmask 11110100
          -77 -56 -61 -91 -76 vvcurveto
          -68 50 -48 125 190 131 146 134 47 -37 36 -56 15 vhcurveto
          60 42 41 70 57 vvcurveto
          56 -40 38 -105 vhcurveto
          -74 -305 rmoveto
          67 40 -38 -56 -95 -81 -88 -103 -67 -36 37 59 93 76 88 104 hvcurveto
          36 240 rmoveto
          hintmask 11101010
          55 31 -25 -41 -67 -69 -62 -76 -54 -29 26 41 67 58 61 84 hvcurveto
          endchar
        </CharString>
        <CharString name="emdash">
          81 179 63 hstem
          562 179 -8 callsubr
        </CharString>
        <CharString name="endash">
          -149 179 63 hstem
          312 179 rmoveto
          -17 callsubr
          -213 hlineto
          -26 callsubr
          endchar
        </CharString>
        <CharString name="equal">
          -213 162 67 83 67 hstem
          288 162 -75 callsubr
          229 150 -75 callsubr
          endchar
        </CharString>
        <CharString name="eth">
          44 -14 63 289 61 235 68 hstemhm
          42 108 303 107 -85 85 hintmask 11110100
          585 559 rmoveto
          17 7 7 14 -8 20 -6 16 -16 6 -15 -6 -79 -32 rcurveline
          70 -63 -110 48 -107 hhcurveto
          -109 -56 -49 -58 -36 22 -24 28 hvcurveto
          71 -45 99 125 hhcurveto
          67 60 -26 -53 43 hvcurveto
          -90 -35 -17 -7 -6 -13 7 -18 rlinecurve
          7 -18 15 -7 15 6 102 40 rcurveline
          17 -36 11 -43 3 -51 rrcurveto
          15 -27 -51 11 -38 hhcurveto
          -150 -167 -152 -137 -73 -18 callsubr
          187 159 163 125 63 -16 60 -7 77 hvcurveto
          -2 20 -6 20 -9 19 rrcurveto
          -175 -195 rmoveto
          hintmask 11111000
          68 40 -34 -47 callgsubr
          94 84 93 111 hvcurveto
          endchar
        </CharString>
        <CharString name="exclam">
          -319 17 -21 749 -20 hstem
          76 90 vstem
          121 177 rmoveto
          33 9 14 19 hvcurveto
          6 499 rlineto
          19 -15 17 -33 -33 -15 -17 -19 vhcurveto
          6 -499 rlineto
          -19 9 -14 33 vhcurveto
          -181 vmoveto
          -96 callsubr
        </CharString>
        <CharString name="exclamdown">
          -319 -288 -21 714 -20 hstem
          76 90 vstem
          121 224 rmoveto
          -33 -9 -14 -19 hvcurveto
          -6 -464 rlineto
          -19 15 -17 33 33 15 17 19 vhcurveto
          -6 464 rlineto
          19 -9 14 -33 vhcurveto
          181 vmoveto
          -35 -16 -16 -21 hvcurveto
          -32 vlineto
          -21 16 -16 35 34 16 16 21 vhcurveto
          32 vlineto
          -27 callsubr
          vhcurveto
          endchar
        </CharString>
        <CharString name="f">
          -107 11 -21 341 63 248 60 hstem
          67 106 182 98 vstem
          173 331 rmoveto
          127 hlineto
          -17 callsubr
          -127 51 hlineto
          105 79 92 67 13 callgsubr
          -24 21 -31 callsubr
          endchar
        </CharString>
        <CharString name="five">
          43 -13 68 273 62 155 66 hstem
          422 111 vstem
          296 611 rmoveto
          -70 -58 -46 -94 -27 hvcurveto
          -36 -162 -7 -32 2 -10 19 -13 rlinecurve
          18 -12 21 5 26 22 rrcurveto
          33 39 54 26 54 hhcurveto
          53 38 -36 -59 -94 -84 -84 -122 hvcurveto
          -60 callsubr
          192 161 151 121 83 -54 48 -109 -60 -60 -15 -35 -54 hvcurveto
          7 67 8 36 17 55 rrcurveto
          33 10 18 14 48 hhcurveto
          85 hlineto
          131 -71 -70 69 hhcurveto
          34 11 20 34 51 -36 31 -88 hvcurveto
          endchar
        </CharString>
        <CharString name="foundryicon">
          304 21 -21 576 -20 hstem
          720 hmoveto
          288 -288 288 -288 -576 vlineto
          576 432 rmoveto
          144 -144 -144 vlineto
          endchar
        </CharString>
        <CharString name="four">
          49 10 -21 214 61 352 25 callgsubr
          hstemhm
          30 108 302 99 hintmask 11101100
          444 29 rmoveto
          -23 14 -17 34 33 -50 callgsubr
          547 -69 callsubr
          -130 -97 -94 -104 -64 -37 34 68 -68 callgsubr
          hintmask 11011100
          -87 callgsubr
          -57 120 98 80 45 89 54 vhcurveto
          endchar
        </CharString>
        <CharString name="g">
          59 -309 68 227 70 292 59 hstem
          41 107 301 105 vstem
          548 219 rmoveto
          -52 callgsubr
          -85 callgsubr
          vhcurveto
          -135 vlineto
          -120 -86 -76 callgsubr
          16 -6 13 21 vvcurveto
          -196 321 rmoveto
          62 40 -39 -58 -70 callgsubr
          hvcurveto
          endchar
        </CharString>
        <CharString name="germandbls">
          21 -14 63 -38 -21 341 63 248 60 hstemhm
          67 106 55 96 31 98 0 98 hintmask 01111110
          387 540 rmoveto
          46 53 20 7 53 vvcurveto
          27 -24 22 -31 callsubr
          415 vlineto
          105 79 92 67 27 9 -10 -23 vhcurveto
          -90 -103 -37 -71 -70 vvcurveto
          -46 19 -31 49 -28 vhcurveto
          101 -59 rlineto
          46 -27 10 -17 -29 vvcurveto
          hintmask 10111110
          -45 -32 -34 -52 -31 -25 16 28 -16 vhcurveto
          33 -19 -11 10 -20 hhcurveto
          -26 -15 -19 -29 -48 71 -54 78 hvcurveto
          hintmask 10111101
          107 89 83 81 41 -19 32 -67 39 hvcurveto
          -87 51 rlineto
          -42 24 -12 18 34 vvcurveto
          48 19 53 44 50 vhcurveto
          endchar
        </CharString>
        <CharString name="grave">
          -385 489 -46 callsubr
          hstem
          79 492 -105 callsubr
        </CharString>
        <CharString name="grave.cap">
          -385 717 -46 callsubr
          hstem
          79 720 -105 callsubr
        </CharString>
        <CharString name="greater">
          -127 75 431 rmoveto
          -16 7 -17 -8 -8 -19 -8 -17 4 -19 17 -7 252 -104 rcurveline
          -252 -103 -16 -7 -5 -18 8 -18 rlinecurve
          8 -19 17 -8 16 7 310 136 rcurveline
          13 6 5 11 14 vvcurveto
          13 -5 11 -13 6 vhcurveto
          endchar
        </CharString>
        <CharString name="guillemotleft">
          -110 225 332 -71 callsubr
          264 102 -71 callsubr
          endchar
        </CharString>
        <CharString name="guillemotright">
          -110 322 230 -74 callsubr
          -70 -102 -74 callsubr
          endchar
        </CharString>
        <CharString name="guilsinglleft">
          -277 225 332 -71 callsubr
          endchar
        </CharString>
        <CharString name="guilsinglright">
          -277 155 230 -74 callsubr
          endchar
        </CharString>
        <CharString name="h">
          -10 callsubr
          295 -20 hstemhm
          70 97 304 108 hintmask 01111100
          8 callsubr
          -634 vlineto
          -20 callgsubr
          hintmask 10111100
          -14 callsubr
          endchar
        </CharString>
        <CharString name="hbar">
          -10 callsubr
          74 63 158 -20 16 callsubr
          hintmask 01111110
          8 callsubr
          -118 -43 vlineto
          -18 -11 -16 -16 -16 11 -15 18 hvcurveto
          43 -453 hlineto
          -20 callgsubr
          hintmask 10111110
          -14 callsubr
          204 131 vlineto
          18 11 15 17 16 -11 15 -18 hvcurveto
          -131 hlineto
          endchar
        </CharString>
        <CharString name="hyphen">
          -24 callsubr
        </CharString>
        <CharString name="i">
          -19 callsubr
          233 12 callgsubr
          -42 callsubr
          endchar
        </CharString>
        <CharString name="iacute">
          -39 callgsubr
          62 165 -107 callgsubr
        </CharString>
        <CharString name="icircumflex">
          -19 callsubr
          113 -40 callsubr
          -4 76 -2 101 11 67 hintmask 11000010
          -88 callgsubr
          hintmask 00011101
          66 73 -57 callsubr
        </CharString>
        <CharString name="idieresis">
          -19 callsubr
          143 -55 callgsubr
          -17 101 -14 101 -13 101 hintmask 1100000100000000
          -88 callgsubr
          hintmask 0010101010000000
          -87 102 -44 callgsubr
        </CharString>
        <CharString name="igrave">
          -39 callgsubr
          -8 89 -105 callsubr
        </CharString>
        <CharString name="ij">
          -80 -309 68 252 -21 413 -20 233 -20 hstemhm
          70 101 140 99 -81 101 hintmask 01111000
          -42 callsubr
          hintmask 10110100
          240 hmoveto
          -52 callsubr
          -49 -444 rmoveto
          hintmask 10110010
          -61 callsubr
          hintmask 10110100
          -41 callgsubr
        </CharString>
        <CharString name="itilde">
          -19 callsubr
          138 53 -15 53 -53 callgsubr
          hintmask 00010000
          55 209 -98 callsubr
        </CharString>
        <CharString name="j">
          9 callgsubr
          233 -20 hstemhm
          70 99 -81 101 hintmask 11110000
          119 494 rmoveto
          -52 callsubr
          -49 -444 rmoveto
          hintmask 11101000
          -61 callsubr
          hintmask 11110000
          -41 callgsubr
        </CharString>
        <CharString name="jcircumflex">
          9 callgsubr
          113 -40 callsubr
          -5 76 -1 99 -81 101 -8 67 hintmask 0001110010000000
          186 476 -101 callgsubr
          hintmask 0010110010000000
          -106 callsubr
          hintmask 0001110010000000
          -16 -5 8 -8 16 hhcurveto
          hintmask 1100001000000000
          -116 -426 rmoveto
          hintmask 1100000100000000
          -61 callsubr
          hintmask 1100001000000000
          -41 callgsubr
        </CharString>
        <CharString name="k">
          -105 7 14 callsubr
          hintmask 10111000
          166 229 rmoveto
          -134 12 117 -109 98 hhcurveto
          32 16 22 25 30 -10 11 -34 6 hvcurveto
          -79 14 -101 70 69 vvcurveto
          51 49 48 65 -3 callsubr
          -18 19 -48 -94 -92 -71 -73 -27 hvcurveto
          3 401 rlineto
          -54 callgsubr
          -632 vlineto
          hintmask 01111000
          -79 callgsubr
          endchar
        </CharString>
        <CharString name="kcommaaccent">
          -105 -132 -20 159 14 callsubr
          27 94 hintmask 01011100
          166 229 rmoveto
          -134 12 117 -109 98 hhcurveto
          32 16 22 25 30 -10 11 -34 6 hvcurveto
          -79 14 -101 70 69 vvcurveto
          51 49 48 65 -3 callsubr
          -18 19 -48 -94 -92 -71 -73 -27 hvcurveto
          3 401 rlineto
          -54 callgsubr
          -632 vlineto
          hintmask 00111100
          -79 callgsubr
          hintmask 10000010
          119 -196 -84 callgsubr
        </CharString>
        <CharString name="kgreenlandic">
          -105 7 -21 25 -21 342 73 -7 -20 hstemhm
          70 97 hintmask 10101000
          166 203 rmoveto
          -117 13 119 -100 96 hhcurveto
          32 15 22 25 30 -11 13 -32 4 hvcurveto
          -81 10 -100 55 68 vvcurveto
          55 51 64 63 -3 callsubr
          -13 19 -48 -104 -88 -85 -85 -26 hvcurveto
          3 123 rlineto
          hintmask 01011000
          -54 callgsubr
          -328 -62 callsubr
          endchar
        </CharString>
        <CharString name="l">
          -319 11 -21 712 12 callgsubr
          171 662 rmoveto
          -46 callgsubr
          -632 15 callsubr
        </CharString>
        <CharString name="ldot">
          -198 11 -21 536 -21 106 -20 111 -20 hstemhm
          70 101 40 101 hintmask 10011000
          171 662 rmoveto
          -46 callgsubr
          -632 vlineto
          -23 15 -17 35 36 15 17 23 vhcurveto
          hintmask 01100100
          91 475 rmoveto
          -96 callsubr
        </CharString>
        <CharString name="less">
          -127 48 295 rmoveto
          -13 -6 -5 -11 -13 vvcurveto
          -14 5 -11 13 -6 vhcurveto
          310 -136 16 -7 17 8 8 19 rlinecurve
          8 18 -5 18 -16 7 -252 103 rcurveline
          252 104 17 7 4 19 -8 17 rlinecurve
          -8 19 -17 8 -16 -7 rrcurveto
          endchar
        </CharString>
        <CharString name="logicalnot">
          -203 132 -21 111 67 hstem
          260 67 vstem
          260 140 2 callsubr
          119 vlineto
          17 -13 13 -16 vhcurveto
          -239 hlineto
          -66 callgsubr
          201 hlineto
          endchar
        </CharString>
        <CharString name="lslash">
          -319 11 -21 712 12 callgsubr
          259 361 rmoveto
          -2 22 -14 12 -12 -3 -60 -13 rcurveline
          283 vlineto
          -46 callgsubr
          -306 vlineto
          -66 -14 -12 -3 -11 -6 1 -22 rlinecurve
          2 -22 14 -13 12 3 60 13 rcurveline
          -262 vlineto
          -23 15 -17 35 36 15 17 23 vhcurveto
          284 vlineto
          66 15 12 3 11 7 -1 22 rlinecurve
          endchar
        </CharString>
        <CharString name="m">
          210 5 -21 25 -21 360 59 -9 -20 hstemhm
          70 95 159 99 185 107 hintmask 01101110
          317 -6 callgsubr
          -72 -48 -35 -93 -32 hvcurveto
          79 vlineto
          hintmask 01011110
          -80 callsubr
          93 vlineto
          hintmask 01101110
          125 59 102 52 31 13 -23 -65 vhcurveto
          -232 -62 callsubr
          92 vlineto
          130 61 98 60 42 22 -33 -69 -78 -29 -91 -30 -39 vhcurveto
          -10 -13 -3 -7 -6 vvcurveto
          hintmask 10101110
          -13 15 -15 17 13 11 2 15 15 vhcurveto
          61 61 47 128 82 vvcurveto
          74 -41 61 -90 -71 -51 -33 -84 -42 vhcurveto
          76 -3 -38 41 -62 hhcurveto
          endchar
        </CharString>
        <CharString name="macron">
          -249 528 65 hstem
          262 528 rmoveto
          18 11 12 21 20 -11 12 -18 hvcurveto
          -213 hlineto
          -18 -11 -12 -20 -21 11 -12 18 hvcurveto
          endchar
        </CharString>
        <CharString name="mu">
          69 -285 -21 296 55 -38 -21 412 -20 29 18 callsubr
          -92 92 302 99 hintmask 11010101
          464 30 rmoveto
          -23 14 -17 34 33 14 17 23 vhcurveto
          328 -51 callsubr
          hintmask 11001101
          -87 callsubr
          hintmask 10110011
          -23 5 -20 11 -18 vhcurveto
          -323 vlineto
          -23 10 -17 35 36 10 17 23 vhcurveto
          271 vlineto
          -11 24 34 -8 32 hhcurveto
          74 89 44 89 54 hvcurveto
          endchar
        </CharString>
        <CharString name="multiply">
          -272 39 197 rmoveto
          -13 -13 2 -18 15 -14 13 -13 18 -2 12 12 58 58 rcurveline
          58 -57 12 -13 18 2 14 15 rlinecurve
          14 13 2 18 -13 12 -58 57 rcurveline
          57 57 13 13 -2 18 -13 13 rlinecurve
          -15 14 -17 2 -13 -12 -57 -57 rcurveline
          -57 57 -13 13 -17 -2 -14 -13 rlinecurve
          -14 -15 -2 -17 13 -13 57 -57 rcurveline
          endchar
        </CharString>
        <CharString name="n">
          -10 callsubr
          -9 -20 16 callsubr
          hintmask 01011100
          -83 callsubr
          93 vlineto
          hintmask 10101100
          -71 callgsubr
          endchar
        </CharString>
        <CharString name="nacute">
          -10 callsubr
          -9 -20 111 -21 153 -20 -67 callgsubr
          hintmask 00001100
          211 292 -107 callgsubr
        </CharString>
        <CharString name="nbspace">
          -260 endchar
        </CharString>
        <CharString name="nine">
          42 -13 68 149 63 295 63 hstemhm
          63 108 258 105 -79 79 -79 107 hintmask 11111000
          429 258 rmoveto
          -120 -86 -76 callgsubr
          15 -6 6 89 vvcurveto
          hintmask 11110010
          21 39 13 41 39 vvcurveto
          73 -51 50 -122 -174 -152 5 callgsubr
          -73 51 -51 119 vhcurveto
          hintmask 11111000
          74 66 28 59 56 hvcurveto
          -77 271 rmoveto
          hintmask 11110100
          63 40 -40 -60 -101 -84 -94 -101 -63 -36 39 63 99 80 94 101 hvcurveto
          endchar
        </CharString>
        <CharString name="ntilde">
          -10 callsubr
          -9 -20 143 53 -15 53 -67 callgsubr
          hintmask 00000100
          198 336 rmoveto
          hintmask 00001000
          -66 callsubr
          hintmask 00000100
          -65 callgsubr
          hintmask 00001000
          -15 callgsubr
          hintmask 00000100
          -65 callsubr
          hintmask 00001000
          -64 callgsubr
          hintmask 00000100
          -30 callgsubr
        </CharString>
        <CharString name="numbersign">
          40 11 -21 632 -20 hstem
          128 86 173 85 vstem
          63 522 rmoveto
          -19 -14 -14 -30 -30 14 -12 19 hvcurveto
          65 -260 -65 hlineto
          -19 -14 -12 -31 -29 14 -14 19 hvcurveto
          65 -67 hlineto
          -19 13 -14 30 30 13 14 19 vhcurveto
          67 173 -67 vlineto
          -19 12 -14 29 32 12 14 19 vhcurveto
          67 64 vlineto
          20 14 14 29 31 -14 12 -20 hvcurveto
          -64 260 64 hlineto
          20 14 12 30 30 -14 14 -20 hvcurveto
          -64 67 hlineto
          19 -12 14 -32 -29 -12 -14 -19 vhcurveto
          -67 -173 67 vlineto
          19 -13 14 -30 -30 -13 -14 -19 vhcurveto
          -67 vlineto
          86 -86 rmoveto
          173 -260 -173 hlineto
          endchar
        </CharString>
        <CharString name="o">
          -9 callgsubr
          hstem
          11 callsubr
          107 vstem
          -100 callsubr
          endchar
        </CharString>
        <CharString name="oacute">
          -57 callgsubr
          28 224 -107 callgsubr
        </CharString>
        <CharString name="ocircumflex">
          -9 callgsubr
          89 -40 callsubr
          40 108 26 -1 callsubr
          24 107 hintmask 1100010010000000
          -100 callsubr
          26 callsubr
          22 132 -99 callgsubr
        </CharString>
        <CharString name="odieresis">
          -9 callgsubr
          -2 callgsubr
          108 12 17 callsubr
          15 107 hintmask 1100001001000000
          -100 callsubr
          hintmask 0010100110000000
          -132 161 -92 callgsubr
        </CharString>
        <CharString name="oe">
          393 -14 67 291 63 hstem
          11 callsubr
          80 300 101 vstem
          768 -6 callgsubr
          -84 -89 -34 -57 -61 hvcurveto
          51 -13 -42 40 -94 hhcurveto
          -184 -161 5 callgsubr
          -73 51 -51 120 87 85 34 62 62 hvcurveto
          -60 17 40 -36 96 hhcurveto
          78 78 21 42 77 hvcurveto
          18 10 4 10 -2 15 rrcurveto
          14 -2 -7 7 -13 hhcurveto
          -2 callsubr
          hvcurveto
          -27 callgsubr
          31 49 -35 callsubr
          48 65 vvcurveto
          55 -51 45 -113 vhcurveto
          -425 -80 callgsubr
          392 6 -81 callsubr
          endchar
        </CharString>
        <CharString name="ograve">
          -57 callgsubr
          -54 148 -105 callsubr
        </CharString>
        <CharString name="one">
          -185 11 -21 631 -20 hstem
          204 101 vstem
          46 528 rmoveto
          -27 -13 -4 -18 10 -24 10 -23 23 -11 23 14 123 73 rcurveline
          -496 vlineto
          -23 15 -17 35 36 15 17 23 vhcurveto
          541 vlineto
          32 -15 18 -36 -12 -13 -3 -6 -13 vhcurveto
          endchar
        </CharString>
        <CharString name="onehalf">
          365 0 66 196 -21 76 65 245 -20 hstemhm
          165 86 511 85 hintmask 01011000
          667 591 rmoveto
          13 19 6 18 -32 18 -29 19 -12 -11 -12 -20 -372 -613 rcurveline
          -13 -20 -6 -17 31 -18 rrcurveto
          9 callsubr
          13 7 9 13 7 hvcurveto
          -210 596 -61 callgsubr
          hintmask 10100100
          419 -620 -64 callsubr
        </CharString>
        <CharString name="onequarter">
          389 7 -21 123 59 94 -21 386 -20 hstemhm
          165 86 324 86 148 80 hintmask 11000110
          811 -78 callgsubr
          hintmask 00111000
          -210 596 -61 callgsubr
          endchar
        </CharString>
        <CharString name="onesuperior">
          -249 262 -21 386 -20 hstem
          165 86 vstem
          85 574 -61 callgsubr
          endchar
        </CharString>
        <CharString name="ordfeminine">
          -29 0 67 193 63 250 53 hstem
          40 95 262 84 vstem
          341 19 callsubr
          -160 -141 -130 -121 -71 45 -44 105 80 74 37 59 51 hvcurveto
          -58 vlineto
          -20 12 -15 31 31 12 15 20 vhcurveto
          165 vlineto
          16 10 21 19 vvcurveto
          64 -46 43 -104 vhcurveto
          -31 -53 rmoveto
          53 34 -33 -51 -85 -80 -81 -94 -56 -32 30 54 85 76 81 99 hvcurveto
          152 -573 -9 callsubr
        </CharString>
        <CharString name="ordmasculine">
          -29 0 67 193 57 252 57 hstem
          41 96 259 95 vstem
          341 19 callsubr
          -160 -140 -139 -119 -64 44 -44 105 163 138 142 117 64 -44 43 -106 hvcurveto
          -38 -57 rmoveto
          58 35 -34 -52 -86 -77 -80 -93 -55 -34 33 54 85 72 80 94 hvcurveto
          159 -569 -9 callsubr
        </CharString>
        <CharString name="oslash">
          -9 callgsubr
          hstem
          40 105 309 104 vstem
          -53 callsubr
          -34 11 -30 24 -21 hvcurveto
          -17 -17 -16 -16 2 -22 20 -19 rlinecurve
          21 -23 21 2 15 15 44 44 rcurveline
          -2 14 16 -1 17 hhcurveto
          -29 callgsubr
          33 -11 29 -23 21 hvcurveto
          18 18 17 17 -4 20 -19 19 rlinecurve
          -21 22 -21 0 -15 -15 -44 -45 rcurveline
          2 -15 -17 2 -18 hhcurveto
          -42 -63 rmoveto
          15 14 -2 -4 13 hvcurveto
          -225 -240 rlineto
          -10 14 -5 18 21 vvcurveto
          97 87 96 111 vhcurveto
          111 -100 rmoveto
          -99 -93 -96 -109 -13 -13 1 4 -11 vhcurveto
          224 240 rlineto
          10 -14 5 -19 -17 vvcurveto
          endchar
        </CharString>
        <CharString name="otilde">
          -9 callgsubr
          114 53 -15 53 -83 callgsubr
          hintmask 00010000
          11 268 -98 callsubr
        </CharString>
        <CharString name="p">
          23 -288 -21 299 56 305 56 hstem
          70 99 269 105 vstem
          169 -3 rmoveto
          -4 18 33 -3 22 hhcurveto
          151 150 148 133 81 -70 55 -121 -80 -114 -33 -42 -64 hvcurveto
          -23 -15 -6 -9 -12 -11 5 -12 -21 vvcurveto
          -521 -62 callsubr
          269 516 rmoveto
          -110 -90 -91 -114 -24 -18 3 10 -23 vhcurveto
          150 vlineto
          34 0 35 2 26 vhcurveto
          29 41 53 18 53 hhcurveto
          75 45 -36 -68 hvcurveto
          endchar
        </CharString>
        <CharString name="paragraph">
          80 -288 -21 687 58 218 48 -10 -20 hstemhm
          15 88 212 95 65 95 hintmask 11011110
          570 652 rmoveto
          23 -18 17 -30 -30 -17 -32 callgsubr
          -921 vlineto
          -23 17 -17 30 31 17 17 23 vhcurveto
          -255 hmoveto
          -23 17 -17 30 31 17 17 23 vhcurveto
          818 vlineto
          16 9 19 18 vvcurveto
          hintmask 11101110
          59 -48 41 -104 -138 -114 -114 -109 -62 50 -39 82 60 61 19 52 47 vhcurveto
          -77 205 rmoveto
          47 36 -32 -47 -82 -67 -57 -74 -47 -30 25 45 76 55 72 80 hvcurveto
          endchar
        </CharString>
        <CharString name="parenleft">
          25 callsubr
          70 104 vstem
          174 468 rmoveto
          -20 callsubr
          -394 -14 callgsubr
          107 113 vvcurveto
          endchar
        </CharString>
        <CharString name="parenright">
          25 callsubr
          175 104 vstem
          175 63 rmoveto
          -113 -30 -107 -11 callgsubr
          394 -22 callsubr
          endchar
        </CharString>
        <CharString name="percent">
          444 9 56 198 56 -26 56 198 56 hstemhm
          30 92 235 91 108 92 235 91 hintmask 11011111
          722 589 rmoveto
          6 10 4 9 8 vvcurveto
          10 -6 9 -17 11 vhcurveto
          7 -11 -9 3 -7 hhcurveto
          -13 -7 -10 -13 -8 hvcurveto
          -370 -610 rlineto
          -6 -10 -5 -9 -8 vvcurveto
          -10 6 -9 17 -11 vhcurveto
          9 callsubr
          13 8 10 13 8 hvcurveto
          -43 624 -37 callgsubr
          hintmask 10111111
          563 -198 -37 callgsubr
          endchar
        </CharString>
        <CharString name="period">
          -339 17 -21 106 5 callsubr
          -4 rmoveto
          -96 callsubr
        </CharString>
        <CharString name="periodcentered">
          -339 167 -21 106 5 callsubr
          146 rmoveto
          -96 callsubr
        </CharString>
        <CharString name="plus">
          -213 132 -21 111 18 callgsubr
          140 2 callsubr
          82 -26 callgsubr
          endchar
        </CharString>
        <CharString name="plusminus">
          -213 0 67 155 18 callgsubr
          150 2 callsubr
          72 -26 callgsubr
          148 -222 -75 callsubr
          endchar
        </CharString>
        <CharString name="q">
          58 -288 -21 295 70 292 59 hstem
          40 107 301 99 vstem
          -92 callsubr
          -366 vlineto
          -23 14 -17 36 35 -50 callgsubr
          488 -82 callsubr
          -70 callgsubr
          hvcurveto
          endchar
        </CharString>
        <CharString name="question">
          -51 17 -21 636 70 hstem
          219 88 56 106 vstem
          264 177 rmoveto
          33 8 14 19 1 hvcurveto
          3 45 2 35 3 5 31 34 rlinecurve
          49 54 75 108 73 vvcurveto
          83 -74 55 -111 -149 -94 -79 -63 -25 20 -13 25 31 12 13 20 9 vhcurveto
          48 22 36 29 62 hhcurveto
          65 40 -33 -58 -67 -45 -58 -49 -52 hvcurveto
          -39 -41 -11 -30 -30 vvcurveto
          -20 1 -17 2 -16 vhcurveto
          -19 2 7 -14 33 hhcurveto
          2 -181 rmoveto
          -96 callsubr
        </CharString>
        <CharString name="questiondown">
          -51 -298 70 636 -20 hstem
          40 106 55 89 vstem
          245 227 rmoveto
          -33 -8 -14 -19 -1 hvcurveto
          -3 -45 -2 -35 -3 -5 -31 -34 rlinecurve
          -49 -54 -75 -108 -73 vvcurveto
          -83 74 -55 111 149 94 79 63 25 -20 13 -25 -31 -12 -13 -20 -9 vhcurveto
          -48 -22 -36 -29 -62 hhcurveto
          -65 -40 33 58 67 45 58 49 52 hvcurveto
          39 41 11 30 30 vvcurveto
          20 -1 17 -2 16 vhcurveto
          19 -2 -7 14 -33 hhcurveto
          -2 181 rmoveto
          -34 -16 -16 -21 hvcurveto
          -32 vlineto
          -21 16 -16 34 35 16 16 21 vhcurveto
          32 vlineto
          21 -16 16 -35 vhcurveto
          endchar
        </CharString>
        <CharString name="quotedbl">
          -229 448 -21 275 -20 hstem
          50 81 69 -13 callgsubr
          150 201 -33 callgsubr
          endchar
        </CharString>
        <CharString name="quotedblbase">
          -280 85 20 callgsubr
          54 -68 callsubr
        </CharString>
        <CharString name="quotedblleft">
          -280 548 -21 hstem
          30 86 31 86 vstem
          30 558 -63 callsubr
          117 -23 -63 callsubr
          endchar
        </CharString>
        <CharString name="quotedblright">
          -280 702 20 callgsubr
          671 -68 callsubr
        </CharString>
        <CharString name="quoteleft">
          -397 527 20 hstem
          30 86 vstem
          30 558 -63 callsubr
          endchar
        </CharString>
        <CharString name="quoteright">
          -397 702 -20 hstem
          47 86 vstem
          133 671 -98 callgsubr
          endchar
        </CharString>
        <CharString name="quotesinglbase">
          -397 85 -20 hstem
          47 86 vstem
          133 54 -98 callgsubr
          endchar
        </CharString>
        <CharString name="quotesingle">
          -379 448 -21 275 -20 hstem
          50 -13 callgsubr
          endchar
        </CharString>
        <CharString name="r">
          -73 9 24 callgsubr
          hstemhm
          70 99 hintmask 10110000
          -83 callsubr
          51 vlineto
          hintmask 11010000
          -51 callgsubr
          endchar
        </CharString>
        <CharString name="rcaron">
          -73 9 24 callgsubr
          97 10 callgsubr
          70 99 -55 67 110 76 hintmask 1010001000000000
          -83 callsubr
          51 vlineto
          hintmask 1100001000000000
          -51 callgsubr
          hintmask 0001100110000000
          11 374 rmoveto
          26 callgsubr
          -96 callgsubr
          hintmask 0001100110000000
          3 callgsubr
        </CharString>
        <CharString name="rcommaaccent">
          -73 -128 -20 157 24 callgsubr
          hstemhm
          70 99 23 94 hintmask 01011000
          -83 callsubr
          51 vlineto
          hintmask 01101000
          -51 callgsubr
          hintmask 10000100
          121 -408 -84 callgsubr
        </CharString>
        <CharString name="registered">
          57 266 45 300 -20 66 45 hstem
          50 65 238 60 91 63 vstem
          265 465 rmoveto
          -2 9 12 -1 5 hhcurveto
          33 31 -29 -48 4 hvcurveto
          -10 1 7 -6 19 hhcurveto
          17 10 4 13 41 -35 45 -47 7 hvcurveto
          50 8 26 33 34 vvcurveto
          34 -27 23 -59 -87 -21 -26 -37 vhcurveto
          -160 vlineto
          -12 11 -6 15 17 9 5 13 vhcurveto
          149 vmoveto
          36 4 4 43 26 15 -11 -22 -30 -20 -19 -47 -10 -6 1 1 -5 vhcurveto
          87 205 rmoveto
          -170 -132 -117 -147 -104 80 -68 135 187 115 134 132 100 -86 70 -129 hvcurveto
          -22 -45 rmoveto
          96 78 -52 -92 -105 -93 -97 -131 -96 -69 47 98 116 97 85 118 hvcurveto
          endchar
        </CharString>
        <CharString name="ring">
          -298 506 22 callgsubr
          hstem
          163 656 -58 callsubr
        </CharString>
        <CharString name="ring.cap">
          -292 702 -21 175 -20 hstem
          167 856 rmoveto
          -75 -72 -61 -58 -31 24 -25 56 77 71 64 56 34 -30 21 -51 hvcurveto
          22 -71 rmoveto
          -33 -31 -33 -37 -27 -15 10 24 35 31 32 38 25 16 -13 -22 vhcurveto
          endchar
        </CharString>
        <CharString name="s">
          -55 -14 63 303 55 hstem
          92 103 142 103 vstem
          228 49 rmoveto
          -60 -31 16 44 -17 hvcurveto
          33 -13 -15 11 -23 hhcurveto
          -28 -16 -20 -34 -58 68 -55 113 149 85 84 58 42 -26 28 -62 19 hvcurveto
          -97 30 rlineto
          -47 14 -13 14 19 vvcurveto
          30 37 28 52 41 26 -12 -44 38 vhcurveto
          -10 9 13 -5 18 hhcurveto
          32 19 22 27 38 -64 39 -107 -144 -73 -64 -69 -37 24 -30 57 -17 hvcurveto
          111 -34 rlineto
          40 -12 13 -14 -20 vvcurveto
          -28 -37 -33 -72 vhcurveto
          endchar
        </CharString>
        <CharString name="section">
          78 -87 63 423 -20 268 55 hstemhm
          135 103 -80 102 138 102 -80 80 -80 103 hintmask 11110100
          296 -24 rmoveto
          -67 -26 16 44 -20 hvcurveto
          33 -15 -17 11 -22 hhcurveto
          -26 -15 -18 -30 -60 70 -59 122 145 75 85 77 57 -32 39 -41 18 hvcurveto
          hintmask 11101001
          60 28 36 54 54 vvcurveto
          61 -34 39 -62 22 vhcurveto
          -101 35 rlineto
          -47 16 -19 28 39 vvcurveto
          48 31 34 51 41 30 -12 -44 40 vhcurveto
          -10 9 13 -5 18 hhcurveto
          33 16 22 27 hvcurveto
          38 -4 -66 39 -107 hhcurveto
          -140 -67 -66 -83 -55 33 -44 40 -19 hvcurveto
          hintmask 11110100
          -62 -22 -34 -50 -57 vvcurveto
          -70 28 -36 83 -28 vhcurveto
          91 -31 rlineto
          39 -13 22 -23 -44 vvcurveto
          -46 -31 -39 -71 vhcurveto
          67 415 rmoveto
          hintmask 11110010
          37 -10 20 -25 -48 vvcurveto
          -49 -30 -30 -57 -5 vhcurveto
          -31 10 rlineto
          -50 16 -14 17 52 vvcurveto
          49 31 31 51 7 9 -1 -1 5 vhcurveto
          endchar
        </CharString>
        <CharString name="semicolon">
          -339 355 -21 callgsubr
          50 -184 -36 callsubr
        </CharString>
        <CharString name="seven">
          -64 7 -21 564 69 hstem
          123 51 rmoveto
          -3 -6 -1 -5 -6 vvcurveto
          -15 10 -15 23 -11 vhcurveto
          -5 11 10 -2 8 hhcurveto
          17 10 9 14 7 hvcurveto
          236 475 rlineto
          19 38 16 33 20 vvcurveto
          35 -19 9 -45 vhcurveto
          -206 hlineto
          -139 -47 -27 -53 -36 12 -15 34 hvcurveto
          87 -91 62 169 hhcurveto
          129 hlineto
          endchar
        </CharString>
        <CharString name="six">
          27 -14 62 276 62 180 60 hstemhm
          20 106 296 105 -68 98 hintmask 11110100
          358 386 rmoveto
          -69 -66 -21 -44 -55 hvcurveto
          147 29 101 98 125 hhcurveto
          13 callgsubr
          -22 21 -54 hvcurveto
          -254 1 -129 -156 -116 vvcurveto
          -29 -25 -66 -21 -52 vhcurveto
          -21 -37 -11 -37 -36 vvcurveto
          -64 50 -48 118 vhcurveto
          hintmask 11111000
          183 156 156 127 68 -50 49 -119 hvcurveto
          -41 -62 rmoveto
          66 39 -39 -56 -90 -88 -91 -107 -61 -40 34 56 94 82 92 109 hvcurveto
          endchar
        </CharString>
        <CharString name="slash">
          -178 377 662 rmoveto
          10 21 -8 22 -34 13 rrcurveto
          5 -10 -10 2 -8 hhcurveto
          -17 -11 -9 -15 -5 hvcurveto
          -279 -678 -10 -22 8 -21 33 -13 rlinecurve
          -5 11 10 -2 8 hhcurveto
          17 11 9 15 5 hvcurveto
          endchar
        </CharString>
        <CharString name="space">
          -260 endchar
        </CharString>
        <CharString name="sterling">
          28 0 74 165 48 279 60 hstemhm
          116 103 -76 104 192 104 hintmask 11101100
          252 297 rmoveto
          92 vlineto
          27 -5 13 16 vvcurveto
          79 61 42 83 30 18 -10 -23 -22 25 -13 27 29 23 25 49 33 -32 21 -62 -226 -80 -120 -111 vhcurveto
          -17 10 -14 -16 vvcurveto
          -35 vlineto
          1 -13 -11 1 -12 hhcurveto
          -61 -35 -27 -30 -18 18 -15 19 35 -9 39 4 44 hvcurveto
          7 8 -1 -1 10 hvcurveto
          hintmask 11110100
          -67 -37 -20 -48 vvcurveto
          -86 56 -45 118 vhcurveto
          251 hlineto
          17 10 17 20 19 -10 18 -17 hvcurveto
          -195 hlineto
          -84 -43 6 49 34 20 30 9 54 hvcurveto
          -4 22 22 -4 20 hhcurveto
          62 34 27 33 17 -15 14 -18 hvcurveto
          -45 22 -43 -54 hhcurveto
          -14 -16 2 4 -16 hvcurveto
          endchar
        </CharString>
        <CharString name="t">
          -147 -14 65 280 63 129 -20 hstem
          104 99 vstem
          246 -14 rmoveto
          44 50 13 20 36 hvcurveto
          12 7 5 9 11 vvcurveto
          14 -11 11 -14 -4 -4 -1 -3 -6 vhcurveto
          -11 -22 -21 -5 -35 hhcurveto
          -47 -26 33 63 hvcurveto
          184 127 vlineto
          -17 callsubr
          -127 89 hlineto
          -54 callgsubr
          -89 -45 vlineto
          -26 callsubr
          45 -156 hlineto
          -25 -9 -14 -30 vvcurveto
          -69 62 -51 89 vhcurveto
          endchar
        </CharString>
        <CharString name="thorn">
          58 -288 -21 295 -39 callsubr
          -481 vlineto
          -2 -21 -9 -15 -27 vvcurveto
          -19 3 -18 8 -16 vhcurveto
          -334 -62 callsubr
          262 vlineto
          -5 19 21 -2 24 hhcurveto
          -8 callgsubr
        </CharString>
        <CharString name="three">
          17 -13 68 250 46 205 70 hstemhm
          402 103 -81 113 hintmask 11101000
          247 352 rmoveto
          -34 -4 -8 -8 -29 vvcurveto
          -19 9 -10 19 vhcurveto
          21 53 23 30 hhcurveto
          45 42 -23 -65 -93 -81 -69 -122 hvcurveto
          -60 callsubr
          198 154 141 119 58 -41 46 -78 hvcurveto
          -4 -4 0 -4 hhcurveto
          hintmask 11110000
          75 30 24 70 53 vvcurveto
          79 -63 43 0 callsubr
          52 29 58 hhcurveto
          54 27 -34 -49 -57 -42 -51 -70 -8 hvcurveto
          endchar
        </CharString>
        <CharString name="threequarters">
          419 7 -21 123 59 70 14 callgsubr
          224 86 148 80 hintmask 1100000110000000
          841 -78 callgsubr
          hintmask 0011101000000000
          -124 493 -40 callgsubr
          hintmask 0011110000000000
          -25 callsubr
        </CharString>
        <CharString name="threesuperior">
          -119 238 14 callgsubr
          hintmask 11101000
          201 471 -40 callgsubr
          hintmask 11110000
          -25 callsubr
        </CharString>
        <CharString name="tilde">
          -235 521 27 callsubr
          612 -54 callsubr
        </CharString>
        <CharString name="tilde.cap">
          -235 722 27 callsubr
          813 -54 callsubr
        </CharString>
        <CharString name="two">
          -27 0 73 483 70 hstem
          365 106 vstem
          57 hmoveto
          311 hlineto
          102 33 31 51 29 -17 18 -25 hvcurveto
          -69 64 -56 -127 hhcurveto
          -163 hlineto
          172 114 133 183 113 vvcurveto
          86 -63 57 0 callsubr
          42 29 58 hhcurveto
          59 29 -34 -62 -87 -69 -135 -239 -168 hvcurveto
          -23 -16 -4 -4 -14 vvcurveto
          -20 6 -16 21 vhcurveto
          endchar
        </CharString>
        <CharString name="twosuperior">
          -146 244 66 251 65 hstem
          251 85 vstem
          88 244 -64 callsubr
        </CharString>
        <CharString name="u">
          -22 callgsubr
          hstemhm
          50 108 302 99 hintmask 01101100
          -85 callsubr
          hintmask 10101100
          -91 callsubr
          hintmask 10011100
          -97 callsubr
          endchar
        </CharString>
        <CharString name="uacute">
          -22 callgsubr
          102 -21 153 28 callgsubr
          hintmask 01100011
          -85 callsubr
          hintmask 10100011
          -91 callsubr
          hintmask 10010011
          -97 callsubr
          hintmask 00001100
          -26 449 -107 callgsubr
        </CharString>
        <CharString name="ucircumflex">
          -22 callgsubr
          109 -40 callsubr
          50 108 74 -1 callsubr
          -25 99 hintmask 0110000100100000
          -85 callsubr
          hintmask 1010000100100000
          -91 callsubr
          hintmask 1001000100100000
          -97 callsubr
          hintmask 0000011011000000
          -41 357 -101 callgsubr
          hintmask 0000101011000000
          -106 callsubr
          hintmask 0000011011000000
          -49 callgsubr
        </CharString>
        <CharString name="udieresis">
          -22 callgsubr
          139 -55 callgsubr
          50 108 69 17 callsubr
          -43 99 hintmask 0110000010010000
          -85 callsubr
          hintmask 1010000010010000
          -91 callsubr
          hintmask 1001000010010000
          -97 callsubr
          hintmask 0000101001100000
          -186 -48 callsubr
        </CharString>
        <CharString name="ugrave">
          -22 callgsubr
          102 -21 153 28 callgsubr
          hintmask 01100011
          -85 callsubr
          hintmask 10100011
          -91 callsubr
          hintmask 10010011
          -97 callsubr
          hintmask 00001100
          -139 373 -105 callsubr
        </CharString>
        <CharString name="underscore">
          81 -296 63 hstem
          562 -296 -8 callsubr
        </CharString>
        <CharString name="uni0001">
          endchar
        </CharString>
        <CharString name="uni0002">
          endchar
        </CharString>
        <CharString name="uni0003">
          endchar
        </CharString>
        <CharString name="uni0004">
          endchar
        </CharString>
        <CharString name="uni0005">
          endchar
        </CharString>
        <CharString name="uni0006">
          endchar
        </CharString>
        <CharString name="uni0007">
          endchar
        </CharString>
        <CharString name="uni0008">
          endchar
        </CharString>
        <CharString name="uni0009">
          endchar
        </CharString>
        <CharString name="uni0010">
          endchar
        </CharString>
        <CharString name="uni0011">
          endchar
        </CharString>
        <CharString name="uni0012">
          endchar
        </CharString>
        <CharString name="uni0013">
          endchar
        </CharString>
        <CharString name="uni0014">
          endchar
        </CharString>
        <CharString name="uni0015">
          endchar
        </CharString>
        <CharString name="uni0016">
          endchar
        </CharString>
        <CharString name="uni0017">
          endchar
        </CharString>
        <CharString name="uni0018">
          endchar
        </CharString>
        <CharString name="uni0019">
          endchar
        </CharString>
        <CharString name="uni00AD">
          -24 callsubr
        </CharString>
        <CharString name="v">
          21 -10 72 340 -20 25 -20 hstemhm
          60 102 260 114 hintmask 11011000
          162 402 rmoveto
          -24 -11 -9 -20 -8 hvcurveto
          -39 -104 -20 -96 -65 vvcurveto
          -76 49 -42 107 183 137 165 136 31 -7 28 -14 23 vhcurveto
          hintmask 10111000
          22 -13 -20 12 -26 hhcurveto
          -35 -24 -24 -21 -7 2 -8 3 -9 hvcurveto
          14 -38 6 -29 -31 vvcurveto
          -98 -74 -80 -105 -52 -29 29 50 46 11 67 25 109 vhcurveto
          2 1 4 2 vvcurveto
          hintmask 11011000
          19 -17 12 -20 vhcurveto
          endchar
        </CharString>
        <CharString name="w">
          244 -14 69 346 -34 callsubr
          60 102 199 77 -77 107 179 112 hintmask 10111010
          208 57 rmoveto
          -28 -18 23 48 35 11 62 30 136 hvcurveto
          1 3 0 2 3 vvcurveto
          19 -15 14 -25 -21 -14 -8 -18 -8 vhcurveto
          -39 -95 -22 -113 -68 vvcurveto
          -67 38 -47 83 61 72 34 66 57 vhcurveto
          -62 35 -38 60 153 140 166 132 31 -7 28 -14 24 vhcurveto
          hintmask 11011010
          23 -13 -19 11 -28 hhcurveto
          -33 -26 -21 -20 -7 2 -8 3 -9 hvcurveto
          15 -39 8 -35 -31 vvcurveto
          -91 -74 -85 -81 -36 -18 20 55 vhcurveto
          hintmask 10110110
          46 30 42 63 vvcurveto
          28 -5 26 -13 22 vhcurveto
          23 -13 -21 10 -24 hhcurveto
          -32 -24 -19 -19 -7 2 -9 5 -10 hvcurveto
          12 -26 6 -26 -26 vvcurveto
          -100 -75 -91 -78 vhcurveto
          endchar
        </CharString>
        <CharString name="x">
          -72 18 -21 399 -34 callsubr
          hintmask 10100000
          242 151 rmoveto
          104 -128 rlineto
          -18 14 18 -8 17 hhcurveto
          30 28 25 29 16 -8 17 -20 15 hvcurveto
          -132 99 133 120 rlineto
          14 13 6 13 12 vvcurveto
          23 -21 18 -23 -12 -13 -5 -12 -11 vhcurveto
          -119 -136 -103 127 rlineto
          hintmask 11000000
          18 -15 -17 7 -17 hhcurveto
          -31 -29 -25 -30 -15 8 -16 20 -15 hvcurveto
          132 -100 -132 -119 rlineto
          -14 -13 -6 -13 -12 vvcurveto
          -23 21 -18 23 12 13 5 12 11 vhcurveto
          endchar
        </CharString>
        <CharString name="y">
          -4 callsubr
          hstemhm
          51 107 306 101 hintmask 11101100
          -90 callsubr
          hintmask 11011100
          -97 callsubr
          endchar
        </CharString>
        <CharString name="yacute">
          -4 callsubr
          102 -24 callgsubr
          51 107 306 101 hintmask 11100011
          -90 callsubr
          hintmask 11010011
          -97 callsubr
          hintmask 00001100
          -31 449 -107 callgsubr
        </CharString>
        <CharString name="ydieresis">
          -4 callsubr
          139 -55 callgsubr
          51 107 46 17 callsubr
          -16 101 hintmask 1110000010010000
          -90 callsubr
          hintmask 1101000010010000
          -97 callsubr
          hintmask 0000101001100000
          -209 -48 callsubr
        </CharString>
        <CharString name="yen">
          64 7 -21 116 67 53 67 245 80 hstem
          258 104 vstem
          466 222 rmoveto
          -59 callsubr
          -83 hlineto
          122 29 54 123 47 -7 callsubr
          -138 -77 7 callgsubr
          -92 142 -131 -12 callgsubr
          43 54 -123 -122 30 hvcurveto
          -78 hlineto
          -66 callgsubr
          92 hlineto
          3 -19 3 -17 1 -17 rrcurveto
          -99 hlineto
          -66 callgsubr
          101 -74 hlineto
          -73 callsubr
          74 104 vlineto
          -59 callsubr
          -103 hlineto
          1 17 2 17 3 19 rrcurveto
          endchar
        </CharString>
        <CharString name="z">
          -82 0 62 269 63 hstem
          175 394 rmoveto
          -99 -34 -30 -42 -29 14 -18 28 hvcurveto
          66 -57 56 119 hhcurveto
          130 hlineto
          -260 -227 rlineto
          -40 -34 -7 -16 -19 vvcurveto
          -22 13 -13 33 vhcurveto
          200 hlineto
          103 57 41 41 29 -18 18 -28 hvcurveto
          -69 53 -67 -127 hhcurveto
          -112 hlineto
          274 246 rlineto
          23 23 6 13 17 vvcurveto
          24 -9 9 -34 vhcurveto
          endchar
        </CharString>
        <CharString name="zero">
          9 -14 63 515 63 hstem
          50 106 286 107 vstem
          350 627 rmoveto
          -194 -106 -160 -237 -170 76 -74 121 197 105 163 235 173 -77 70 -122 hvcurveto
          -21 -63 rmoveto
          68 45 -60 -160 -201 -67 -94 -109 -63 -47 59 163 199 62 94 111 hvcurveto
          endchar
        </CharString>
      <CharString index="0">
        rmoveto
        4 5 2 6 6 vvcurveto
        18 -20 18 -24 -20 -10 -6 -17 -9 vhcurveto
        -45 -81 rlineto
        -6 -12 -1 -4 -4 vvcurveto
        -16 17 -13 21 15 11 7 17 12 vhcurveto
        endchar
      </CharString>
      <CharString index="1">
        511 -104 callsubr
        -114 -23 -30 -40 -124 vvcurveto
        -337 vlineto
        -74 13 -24 158 117 107 25 24 44 vhcurveto
        -38 callsubr
        return
      </CharString>
      <CharString index="2">
        106 rmoveto
        -6 -8 -2 -5 -9 hvcurveto
        -27 -54 -64 -20 -115 hhcurveto
        -73 -8 5 44 hvcurveto
        180 -102 callgsubr
        return
      </CharString>
      <CharString index="3">
        159 -107 callsubr
        return
      </CharString>
      <CharString index="4">
        10 callsubr
        -186 -160 -151 -139 -75 51 -56 125 -19 callgsubr
        6 9 11 vvcurveto
        19 -9 9 -14 -2 callsubr
        vhcurveto
        -27 callgsubr
        31 49 -35 callsubr
        48 65 -88 callsubr
        return
      </CharString>
      <CharString index="5">
        215 27 callgsubr
        13 19 18 -11 14 -19 hvcurveto
        -215 90 hlineto
        89 8 10 64 17 vhcurveto
        4 15 44 5 18 hhcurveto
        78 29 -14 -28 28 hvcurveto
        -11 11 22 -8 18 hhcurveto
        27 23 21 30 44 -41 31 -165 return
      </CharString>
      <CharString index="6">
        rmoveto
        23 7 4 15 8 hvcurveto
        13 24 11 38 18 vvcurveto
        25 -24 21 -64 -106 -59 -61 -45 -11 3 -9 7 -7 vhcurveto
        return
      </CharString>
      <CharString index="7">
        rmoveto
        34 -94 callsubr
        -34 -35 -94 callgsubr
        35 vhcurveto
        return
      </CharString>
      <CharString index="8">
        -101 callgsubr
        hintmask 0010101100000000
        -106 callsubr
        26 callsubr
        -49 callgsubr
      </CharString>
      <CharString index="9">
        rmoveto
        18 -14 13 -28 -29 -15 -13 -18 vhcurveto
        -27 vlineto
        -11 8 -10 11 -6 vhcurveto
        -23 -54 -6 -11 7 -12 16 -7 rlinecurve
        17 -6 10 4 5 11 21 47 rcurveline
        16 35 4 11 13 vvcurveto
        return
      </CharString>
      <CharString index="10">
        128 23 72 84 92 vvcurveto
        -23 callsubr
        vhcurveto
        -84 callsubr
        98 49 -43 -68 -95 -65 -56 -152 -30 -35 0 4 -22 hvcurveto
        return
      </CharString>
      <CharString index="11">
        -23 -7 -4 -15 -8 hvcurveto
        -13 -24 -11 -38 -18 vvcurveto
        -25 24 -21 64 106 59 61 45 11 -3 9 -7 7 vhcurveto
        8 -8 -17 5 -17 hhcurveto
        -19 -16 -8 -10 -4 1 -3 2 -3 hvcurveto
        5 -9 3 -9 -10 vvcurveto
        -25 -26 -22 -50 -28 -6 10 11 9 3 12 11 36 vhcurveto
        return
      </CharString>
      <CharString index="12">
        -95 callsubr
        34 34 18 17 25 vhcurveto
        return
      </CharString>
      <CharString index="13">
        -16 -17 -20 vhcurveto
        -33 -50 callsubr
        return
      </CharString>
      <CharString index="14">
        -23 14 -17 36 35 -50 callgsubr
        189 -82 callsubr
        hvcurveto
        return
      </CharString>
      <CharString index="15">
        -100 callgsubr
        26 callgsubr
        -101 callsubr
      </CharString>
      <CharString index="16">
        hstemhm
        30 callgsubr
        537 116 hintmask 11001100
        -103 callsubr
        return
      </CharString>
      <CharString index="17">
        -101 callgsubr
        26 callgsubr
        -106 callsubr
        hintmask 0000110110000000
        -49 callgsubr
      </CharString>
      <CharString index="18">
        169 -95 callgsubr
        return
      </CharString>
      <CharString index="19">
        121 403 rmoveto
        -35 -16 -16 -21 hvcurveto
        -339 6 callgsubr
        17 callgsubr
        vhcurveto
        339 vlineto
        -27 callsubr
        vhcurveto
        return
      </CharString>
      <CharString index="20">
        -87 callsubr
        -76 62 return
      </CharString>
      <CharString index="21">
        rmoveto
        hintmask 00010000
        -66 callsubr
        hintmask 00001000
        -65 callgsubr
        hintmask 00010000
        -15 callgsubr
        hintmask 00001000
        -65 callsubr
        hintmask 00010000
        -64 callgsubr
        hintmask 00001000
        -30 callgsubr
      </CharString>
      <CharString index="22">
        -184 -162 -150 -139 -81 -18 callsubr
        92 85 43 68 59 return
      </CharString>
      <CharString index="23">
        rmoveto
        19 -15 15 -31 -33 -15 -15 -19 vhcurveto
        -30 vlineto
        -13 7 -10 13 -7 vhcurveto
        -22 -48 -5 -12 7 -12 18 -8 rlinecurve
        18 -7 12 4 5 13 19 39 rcurveline
        17 39 5 11 15 vvcurveto
        endchar
      </CharString>
      <CharString index="24">
        hstemhm
        11 callsubr
        107 hintmask 11001100
        -100 callsubr
        return
      </CharString>
      <CharString index="25">
        579 rmoveto
        -81 callgsubr
        return
      </CharString>
      <CharString index="26">
        25 -18 17 -34 -34 -18 -17 -25 vhcurveto
        return
      </CharString>
      <CharString index="27">
        -63 rmoveto
        68 40 -40 -47 callgsubr
        99 84 94 111 hvcurveto
        return
      </CharString>
      <CharString index="28">
        -23 14 -17 35 36 -50 callgsubr
        return
      </CharString>
      <CharString index="29">
        21 rmoveto
        -20 12 -15 28 27 11 15 20 vhcurveto
        312 vlineto
        21 -11 14 -28 -31 -10 -14 -21 vhcurveto
        -49 vlineto
        -67 -50 -49 -53 -28 -17 15 30 28 20 45 35 37 vhcurveto
        8 9 1 7 6 vvcurveto
        13 -14 16 -16 -10 -10 -4 -8 -11 vhcurveto
        -50 -47 -39 -72 -47 vvcurveto
        -49 39 -38 77 46 43 20 31 31 vhcurveto
        -144 431 rmoveto
        13 19 5 17 -31 19 -30 18 -11 -10 -12 -20 -372 -613 rcurveline
        -12 -20 -6 -16 30 -19 rrcurveto
        9 callsubr
        12 7 9 13 8 hvcurveto
        return
      </CharString>
      <CharString index="30">
        -27 callsubr
        -35 -16 -16 -21 vhcurveto
        -32 vlineto
        return
      </CharString>
      <CharString index="31">
        -83 -122 vhcurveto
        -60 callsubr
        194 155 150 136 hvcurveto
        return
      </CharString>
      <CharString index="32">
        -30 callsubr
        32 32 -42 callgsubr
        201 vlineto
        -154 27 90 -89 124 hhcurveto
        155 118 139 168 113 -31 100 -51 67 hvcurveto
        return
      </CharString>
      <CharString index="33">
        13 -15 16 -17 -13 -10 -3 -14 -15 vhcurveto
        -89 return
      </CharString>
      <CharString index="34">
        35 22 21 23 14 -4 14 -12 20 hvcurveto
        -28 46 -17 69 87 vvcurveto
        return
      </CharString>
      <CharString index="35">
        -28 callsubr
        82 -21 153 -20 -93 callsubr
        hintmask 00011000
        return
      </CharString>
      <CharString index="36">
        -58 callgsubr
        -62 callgsubr
        -108 -80 -44 -87 -54 vhcurveto
        return
      </CharString>
      <CharString index="37">
        -100 -93 -95 -111 -65 -37 36 62 100 88 94 116 return
      </CharString>
      <CharString index="38">
        -25 callgsubr
        63 -21 153 -20 -91 callgsubr
        hintmask 00110000
        return
      </CharString>
      <CharString index="39">
        53 37 85 63 68 -45 callsubr
        return
      </CharString>
      <CharString index="40">
        16 callsubr
        hintmask 01010011
        -83 callsubr
        93 vlineto
        hintmask 10100011
        -71 callgsubr
        return
      </CharString>
      <CharString index="41">
        -18 -11 -14 -19 -20 11 -14 18 hvcurveto
        return
      </CharString>
      <CharString index="42">
        13 -9 -9 9 -18 hhcurveto
        -27 -11 -14 -20 hvcurveto
        return
      </CharString>
      <CharString index="43">
        -13 9 9 -9 18 hhcurveto
        27 11 14 20 hvcurveto
        return
      </CharString>
      <CharString index="44">
        10 19 22 7 27 hhcurveto
        27 20 -21 -30 -42 -41 -35 -58 hvcurveto
        -65 25 35 -43 hhcurveto
        -18 -10 -13 -19 -30 35 -24 62 106 83 71 74 55 -35 27 -68 -10 -22 -2 -5 -12 hvcurveto
        return
      </CharString>
      <CharString index="45">
        -43 callgsubr
        78 61 117 82 vvcurveto
        76 -56 51 -116 return
      </CharString>
      <CharString index="46">
        rmoveto
        -26 -13 -3 -16 9 -21 8 -22 22 -9 22 13 48 29 rcurveline
        -257 vlineto
        -21 13 -16 29 31 13 16 21 vhcurveto
        307 vlineto
        26 -13 16 -31 -8 -10 -2 -5 -9 vhcurveto
        return
      </CharString>
      <CharString index="47">
        -47 callsubr
        136 174 hvcurveto
        return
      </CharString>
      <CharString index="48">
        4 callsubr
        -193 -41 callsubr
        return
      </CharString>
      <CharString index="49">
        130 99 97 102 64 37 -33 -69 -53 -37 -86 -63 -68 -18 callgsubr
        return
      </CharString>
      <CharString index="50">
        -9 callgsubr
        82 -21 153 -20 -83 callgsubr
        hintmask 00110000
        return
      </CharString>
      <CharString index="51">
        rmoveto
        hintmask 10111000
        -96 callgsubr
        hintmask 11011000
        3 callgsubr
      </CharString>
      <CharString index="52">
        -21 22 -21 106 -34 callsubr
        return
      </CharString>
      <CharString index="53">
        23 -14 19 callgsubr
        -14 -32 callgsubr
        return
      </CharString>
      <CharString index="54">
        hstemhm
        70 101 hintmask 11001000
        -88 callgsubr
        return
      </CharString>
      <CharString index="55">
        19 11 24 22 vvcurveto
        73 -52 50 -120 return
      </CharString>
      <CharString index="56">
        124 84 134 61 23 15 -8 -23 15 vhcurveto
        -18 12 19 -11 22 hhcurveto
        32 20 23 28 40 -48 39 -76 -73 -72 -50 -111 -38 hvcurveto
        return
      </CharString>
      <CharString index="57">
        14 17 23 vhcurveto
        return
      </CharString>
      <CharString index="58">
        -16 -5 8 -8 16 hhcurveto
        endchar
      </CharString>
      <CharString index="59">
        hstemhm
        65 104 hintmask 11001000
        -89 callgsubr
        return
      </CharString>
      <CharString index="60">
        -60 -101 -90 -94 -109 -63 -41 39 63 return
      </CharString>
      <CharString index="61">
        23 -15 19 callgsubr
        -15 -32 callgsubr
        return
      </CharString>
      <CharString index="62">
        vmoveto
        74 6 10 70 17 vhcurveto
        5 21 34 4 26 hhcurveto
        return
      </CharString>
      <CharString index="63">
        -100 callgsubr
        hintmask 0001011010000000
        -101 callsubr
      </CharString>
      <CharString index="64">
        -13 15 -16 17 13 10 3 14 15 vhcurveto
        89 return
      </CharString>
      <CharString index="65">
        18 17 25 vhcurveto
        return
      </CharString>
      <CharString index="66">
        43 -20 65 65 vvcurveto
        319 vlineto
        -54 callgsubr
        endchar
      </CharString>
      <CharString index="67">
        rmoveto
        -28 -4 -7 -6 -26 vvcurveto
        -19 9 -9 18 vhcurveto
        21 22 13 18 hhcurveto
        19 18 -11 -27 -46 -41 -34 -62 hvcurveto
        -66 34 56 -55 hhcurveto
        -22 -19 -18 -28 -40 37 -34 70 120 94 87 74 31 -16 27 -35 9 hvcurveto
        return
      </CharString>
      <CharString index="68">
        -19 callsubr
        106 -21 153 -20 -53 callgsubr
        hintmask 00110000
        return
      </CharString>
      <CharString index="69">
        2 callgsubr
        376 1 callsubr
        -336 -37 callsubr
        return
      </CharString>
      <CharString index="70">
        rmoveto
        -149 -130 -129 -110 -60 41 -41 98 151 128 132 109 59 -41 40 -98 hvcurveto
        -37 -56 rmoveto
        53 32 -30 -48 -78 -70 -72 -84 -50 -31 30 49 77 65 72 85 hvcurveto
        return
      </CharString>
      <CharString index="71">
        -11 callsubr
        88 -21 153 -20 -48 callgsubr
        hintmask 00110000
        return
      </CharString>
      <CharString index="72">
        105 7 -21 294 64 216 66 return
      </CharString>
      <CharString index="73">
        -176 -147 -166 -229 return
      </CharString>
      <CharString index="74">
        rmoveto
        23 -16 14 -25 -25 -15 -14 -23 vhcurveto
        -201 vlineto
        -23 15 -14 25 25 16 14 23 vhcurveto
        return
      </CharString>
      <CharString index="75">
        -17 -23 vhcurveto
        return
      </CharString>
      <CharString index="76">
        vstem
        147 154 rmoveto
        99 86 93 111 vhcurveto
        -13 callsubr
        -168 -165 -147 -139 -82 57 -53 108 return
      </CharString>
      <CharString index="77">
        34 -27 23 -61 vhcurveto
        endchar
      </CharString>
      <CharString index="78">
        187 159 163 135 return
      </CharString>
      <CharString index="79">
        -151 -136 -152 -191 return
      </CharString>
      <CharString index="80">
        -25 -52 -56 -18 -66 hhcurveto
        -73 -23 return
      </CharString>
      <CharString index="81">
        81 vlineto
        -59 callsubr
        -81 80 hlineto
        18 -14 11 -19 -20 -14 -11 -18 vhcurveto
        -80 -81 vlineto
        -66 callgsubr
        81 hlineto
        return
      </CharString>
      <CharString index="82">
        291 -5 callsubr
        return
      </CharString>
      <CharString index="83">
        -46 callsubr
        hstemhm
        return
      </CharString>
      <CharString index="84">
        10 11 5 12 9 vvcurveto
        18 -13 12 -21 -22 -14 -10 -18 -16 vhcurveto
        -55 -49 return
      </CharString>
      <CharString index="85">
        69 -14 59 -34 -21 408 25 callgsubr
        return
      </CharString>
      <CharString index="86">
        5 callsubr
        249 rmoveto
        -99 callsubr
        return
      </CharString>
      <CharString index="87">
        -79 callgsubr
        93 vlineto
        -58 callgsubr
        return
      </CharString>
      <CharString index="88">
        78 78 21 42 77 hvcurveto
        15 8 return
      </CharString>
      <CharString index="89">
        vhcurveto
        -10 -11 -2 -7 -6 vvcurveto
        return
      </CharString>
      <CharString index="90">
        -25 callgsubr
        hstem
        30 callgsubr
        537 116 vstem
        return
      </CharString>
      <CharString index="91">
        49 -14 66 229 64 215 65 return
      </CharString>
      <CharString index="92">
        -34 27 -23 61 vhcurveto
        return
      </CharString>
      <CharString index="93">
        vlineto
        -125 50 -127 89 -80 vhcurveto
        -14 15 10 -3 13 hhcurveto
        17 15 16 13 6 -2 7 -10 11 hvcurveto
        -63 70 -30 return
      </CharString>
      <CharString index="94">
        81 vstem
        131 665 -33 callgsubr
        return
      </CharString>
      <CharString index="95">
        hhcurveto
        -22 -47 -4 -45 -29 10 -24 19 hvcurveto
        25 20 22 24 hhcurveto
        return
      </CharString>
      <CharString index="96">
        -63 -70 1 callgsubr
        80 50 127 125 vvcurveto
        return
      </CharString>
      <CharString index="97">
        -319 -259 -21 1092 12 callgsubr
        171 772 rmoveto
        -46 callgsubr
        return
      </CharString>
      <CharString index="98">
        38 -14 63 295 63 return
      </CharString>
      <CharString index="99">
        33 69 rmoveto
        -62 -40 39 58 100 96 95 111 64 35 -37 -63 -100 -88 -92 -116 hvcurveto
        endchar
      </CharString>
      <CharString index="100">
        -23 callgsubr
        -82 -48 -103 hhcurveto
        endchar
      </CharString>
      <CharString index="101">
        407 rmoveto
        return
      </CharString>
      <CharString index="102">
        -21 23 -21 261 56 262 57 return
      </CharString>
      <CharString index="103">
        9 8 2 7 7 vvcurveto
        15 -13 13 -16 -9 -8 return
      </CharString>
      <CharString index="104">
        63 21 18 101 12 vhcurveto
        2 16 19 2 21 hhcurveto
        143 70 -59 -138 hvcurveto
        endchar
      </CharString>
      <CharString index="105">
        119 -55 callgsubr
        40 return
      </CharString>
      <CharString index="106">
        -6 callgsubr
        -184 return
      </CharString>
      <CharString index="107">
        vlineto
        -15 callsubr
        return
      </CharString>
      <CharString index="108">
        -18 callgsubr
        -43 callgsubr
        return
      </CharString>
      <CharString index="109">
        267 64 rmoveto
        -86 -8 28 115 hvcurveto
        return
      </CharString>
      <CharString index="110">
        16 5 -8 8 -16 hhcurveto
        endchar
      </CharString>
      <CharString index="111">
        89 -14 69 570 -20 return
      </CharString>
      <CharString index="112">
        -160 -137 return
      </CharString>
      <CharString index="113">
        -50 callsubr
        35 return
      </CharString>
      <CharString index="114">
        -142 -233 -15 hvcurveto
        233 -13 return
      </CharString>
      <CharString index="115">
        10 callgsubr
        20 67 110 76 hintmask 11011000
        82 return
      </CharString>
      <CharString index="116">
        -321 -309 68 644 -20 return
      </CharString>
      <CharString index="117">
        43 102 -34 callsubr
        return
      </CharString>
      <CharString index="118">
        55 99 337 104 return
      </CharString>
      <CharString index="119">
        -20 12 callsubr
        return
      </CharString>
      <CharString index="120">
        27 9 -10 -23 -22 18 -13 27 29 24 25 49 33 return
      </CharString>
      <CharString index="121">
        64 105 -20 177 63 hstemhm
        279 83 -71 90 return
      </CharString>
      <CharString index="122">
        -199 -259 -21 509 74 509 -20 hstem
        return
      </CharString>
      <CharString index="123">
        hlineto
        -66 callgsubr
        endchar
      </CharString>
      <CharString index="124">
        34 -21 callsubr
        return
      </CharString>
      <CharString index="125">
        67 109 -20 hstem
        140 67 vstem
        140 return
      </CharString>
      <CharString index="126">
        17 -36 -35 return
      </CharString>
      <CharString index="127">
        -20 hstemhm
        47 86 31 86 hintmask 11000000
        133 return
      </CharString>
      <CharString index="128">
        hlineto
        -18 -11 -12 -21 -22 11 -12 18 hvcurveto
        return
      </CharString>
      <CharString index="129">
        -21 136 -20 55 -20 return
      </CharString>
      <CharString index="130">
        -24 callgsubr
        70 return
      </CharString>
      <CharString index="131">
        -21 349 70 -9 -20 return
      </CharString>
      <CharString index="132">
        -20 29 -20 return
      </CharString>
      <CharString index="133">
        hintmask 0001010110000000
        return
      </CharString>
      <CharString index="134">
        vlineto
        19 11 return
      </CharString>
      <CharString index="135">
        18 callsubr
        302 99 return
      </CharString>
      <CharString index="136">
        69 hstem
        40 117 return
      </CharString>
      <CharString index="137">
        40 118 return
      </CharString>
      <CharString index="138">
        hstem
        70 104 return
      </CharString>
</ttFont>
